<?xml version="1.0" encoding="UTF-8" standalone="no"?>
<svg
   xmlns:dc="http://purl.org/dc/elements/1.1/"
   xmlns:cc="http://creativecommons.org/ns#"
   xmlns:rdf="http://www.w3.org/1999/02/22-rdf-syntax-ns#"
   xmlns:svg="http://www.w3.org/2000/svg"
   xmlns="http://www.w3.org/2000/svg"
   xmlns:sodipodi="http://sodipodi.sourceforge.net/DTD/sodipodi-0.dtd"
   xmlns:inkscape="http://www.inkscape.org/namespaces/inkscape"
   width="300"
   height="300"
   viewBox="0 0 79.375 79.375"
   version="1.1"
   id="svg1618"
   inkscape:version="1.0.2 (e86c8708, 2021-01-15)"
   sodipodi:docname="favico_andriod_black.svg">
  <defs
     id="defs1612" />
  <sodipodi:namedview
     id="base"
     pagecolor="#ffffff"
     bordercolor="#666666"
     borderopacity="1.0"
     inkscape:pageopacity="0.0"
     inkscape:pageshadow="2"
     inkscape:zoom="2.2034684"
     inkscape:cx="135.016"
     inkscape:cy="111.68193"
     inkscape:document-units="mm"
     inkscape:current-layer="layer1"
     inkscape:document-rotation="0"
     showgrid="false"
     units="px"
     width="256px"
     inkscape:window-width="1680"
     inkscape:window-height="997"
     inkscape:window-x="0"
     inkscape:window-y="25"
     inkscape:window-maximized="1" />
  <metadata
     id="metadata1615">
    <rdf:RDF>
      <cc:Work
         rdf:about="">
        <dc:format>image/svg+xml</dc:format>
        <dc:type
           rdf:resource="http://purl.org/dc/dcmitype/StillImage" />
        <dc:title></dc:title>
      </cc:Work>
    </rdf:RDF>
  </metadata>
  <g
     inkscape:label="Layer 1"
     inkscape:groupmode="layer"
     id="layer1">
    <circle
       style="fill:#000000;fill-opacity:1;stroke:none;stroke-width:3.27832;stroke-linecap:square;stroke-miterlimit:1.75;paint-order:markers stroke fill"
       id="path2208"
       cx="39.6875"
       cy="39.6875"
       r="39.6875" />
    <path
       id="path1573"
       style="fill:#ffffff;fill-opacity:1;fill-rule:nonzero;stroke:none;stroke-width:0.263037;stroke-linecap:square;stroke-linejoin:round;stroke-miterlimit:1.75;stroke-dasharray:none;stroke-opacity:1;paint-order:markers stroke fill"
       d="M 39.593832,5.9523848 C 30.662964,5.9771811 22.106351,9.5423433 15.80003,15.866219 9.4937077,22.190095 5.9523331,30.756594 5.9523517,39.687508 c 2.59e-5,9.049023 3.6354591,17.718662 10.0895973,24.061278 1.700818,-1.053653 3.271058,-2.07283 4.364617,-2.854657 2.61451,-1.639683 5.003535,-3.976406 7.711277,-4.736408 0.951167,-0.267279 2.213153,-0.398186 3.441776,-0.395832 0.955597,0.0018 1.89099,0.08402 2.644337,0.245476 1.247095,0.23645 2.258029,0.494622 3.763187,0.688171 0.768057,0.0059 2.295228,-0.152182 2.295228,-0.152182 0.856826,-0.137462 4.37701,-0.279711 5.330981,0.02634 0.06802,0.0066 0.309256,0.144497 0.380761,0.307714 0.316262,0.614994 0.128266,1.418207 -0.548012,1.942165 -0.962749,0.661211 -2.951823,0.917329 -4.195236,1.132558 l 4.145016,0.356251 4.585436,-2.440259 c 0.49,-0.181613 1.409031,-0.494425 1.927094,-0.403136 0.330326,0.05904 0.519847,0.06868 0.890731,0.311218 0.661289,-0.403227 1.307406,-0.860007 2.598376,-1.261298 0.357054,-0.08938 0.91394,-0.207497 1.391106,-0.198752 0.216891,0.004 0.417291,0.03419 0.57495,0.105158 0.630002,0.233226 1.04203,0.99897 0.645256,1.612841 -0.05516,0.08581 -0.761068,0.544515 -0.761068,0.549994 1.01516,0.0087 2.613229,0.154272 3.447103,0.782982 0.405788,0.306777 0.816551,0.958755 0.426873,1.473591 -0.564516,0.435505 -1.675221,0.366399 -2.330382,0.426724 -0.544516,0.05161 -0.650322,0.05644 -1.153548,0.169988 l -1.75802,0.145185 c -0.539999,0.07097 -1.709383,0.460587 -2.241967,0.661241 l -2.741884,0.983859 c -1.30645,0.274196 -1.059043,0.199061 -1.059043,0.199061 -0.230426,0.06114 -0.470611,0.09963 -0.709783,0.150356 l -3.314552,1.406022 -2.497326,0.760767 -1.112918,0.354737 c -1.196773,0.559358 -1.9641,1.584267 -3.435385,1.500077 l -1.758171,-0.241974 -6.548295,-0.644496 c -2.067099,-0.02355 -3.374558,-0.08132 -5.387135,0.5961 -0.940311,0.316022 -1.876267,0.750896 -2.797434,1.261604 5.260204,3.174733 11.287535,4.852652 17.431529,4.852676 8.947118,2.3e-5 17.527795,-3.554191 23.854379,-9.880754 C 69.868385,57.215328 73.42263,48.634656 73.422648,39.68752 73.42263,30.740376 69.868385,22.1597 63.541803,15.833136 57.215219,9.5065715 48.634542,5.9523583 39.687424,5.9523848 c -0.0312,-4.42e-5 -0.0624,-4.42e-5 -0.0936,0 z m 7.239964,1.860136 c 0.02441,7.95e-5 0.04894,0.00147 0.07366,0.00442 l -0.04991,-0.0035 h 0.02527 l 0.02465,0.0035 h 0.0012 c 0.02082,0.00235 0.04209,0.0061 0.06346,0.010337 0.150017,-8.849e-4 0.28716,-0.00489 0.476636,0.12829 0.104975,0.073776 0.198904,0.2215383 0.221427,0.3462178 0.02252,0.1246795 0.003,0.213855 -0.01552,0.2847365 -0.07394,0.2835201 -0.195002,0.4535488 -0.296149,0.7965271 l -5.89e-4,0.00118 -5.89e-4,0.00118 c -1.036978,3.4493798 -1.821642,6.5695438 -2.484694,9.3247388 -0.04432,0.184172 -0.136887,0.286268 -0.17775,0.339978 -0.01758,0.02311 -0.02214,0.03209 -0.02436,0.03576 l -0.768253,3.595492 c 0.05548,0.151095 0.110466,0.302842 0.163292,0.457159 0.924371,2.700316 1.401205,5.896762 1.326887,9.182144 2.781294,-2.471389 6.619996,-4.795336 11.698023,-5.303139 l 0.534315,-0.05357 -0.05053,0.534468 c -0.259075,2.752628 -1.393154,7.254393 -4.041838,11.328694 3.856142,-0.535887 7.755091,-0.01423 10.579325,1.714042 l 0.304821,0.187035 -0.119005,0.336934 c -1.973942,5.590078 -6.821806,9.698156 -12.266458,11.269117 -4.657365,1.343806 -9.775856,0.795955 -13.882462,-2.282298 -0.31512,0.314247 -0.710138,0.655753 -1.245316,1.063461 l -0.01263,0.0098 -0.01384,0.0093 c -2.658506,1.732321 -7.13769,2.305553 -11.697418,0.928323 C 20.619729,50.685527 15.987426,47.312489 13.153023,41.101441 L 12.960968,40.67989 13.39119,40.507924 c 4.201027,-1.680415 7.530969,-2.16287 10.439467,-1.761221 -1.355965,-3.093495 -2.223158,-6.969432 -2.420932,-11.755566 l -0.02526,-0.607974 0.586057,0.164511 c 4.827358,1.354285 8.220149,3.489473 10.661503,5.719056 -0.172464,-6.077288 1.771363,-12.27805 6.520899,-15.723143 l 0.247907,-0.180034 0.255363,0.169077 c 1.40867,0.934011 2.610008,2.508059 3.551654,4.487282 l 0.462026,-2.194029 c -0.0046,0.02186 -5e-6,-0.0017 -0.008,-0.07366 -0.008,-0.07197 -0.02877,-0.192635 0.0056,-0.354283 0.692695,-3.253042 1.674235,-6.405258 2.252466,-9.5139036 8.83e-4,-0.2288061 0.07017,-0.4102934 0.19038,-0.6122361 0.06558,-0.1101551 0.150451,-0.2212379 0.279562,-0.3145628 0.112741,-0.081489 0.273109,-0.1452616 0.443918,-0.1447256 z"
       sodipodi:nodetypes="cssccccccccccccccccsccccccccccccccccccccsscsccsccccccssscccssccsccccccccsccccscccccccccccccsccsss" />
  </g>
</svg>
