<?xml version="1.0" encoding="UTF-8" standalone="no"?>
<svg
   xmlns:dc="http://purl.org/dc/elements/1.1/"
   xmlns:cc="http://creativecommons.org/ns#"
   xmlns:rdf="http://www.w3.org/1999/02/22-rdf-syntax-ns#"
   xmlns:svg="http://www.w3.org/2000/svg"
   xmlns="http://www.w3.org/2000/svg"
   xmlns:sodipodi="http://sodipodi.sourceforge.net/DTD/sodipodi-0.dtd"
   xmlns:inkscape="http://www.inkscape.org/namespaces/inkscape"
   width="325"
   height="325"
   viewBox="0 0 85.989583 85.989583"
   version="1.1"
   id="svg1618"
   inkscape:version="1.0.2 (e86c8708, 2021-01-15)"
   sodipodi:docname="favico_andriod_details.svg">
  <defs
     id="defs1612" />
  <sodipodi:namedview
     id="base"
     pagecolor="#ffffff"
     bordercolor="#666666"
     borderopacity="1.0"
     inkscape:pageopacity="0.0"
     inkscape:pageshadow="2"
     inkscape:zoom="1.223903"
     inkscape:cx="199.27916"
     inkscape:cy="202.53764"
     inkscape:document-units="mm"
     inkscape:current-layer="layer1"
     inkscape:document-rotation="0"
     showgrid="false"
     units="px"
     width="256px"
     inkscape:window-width="1680"
     inkscape:window-height="997"
     inkscape:window-x="0"
     inkscape:window-y="25"
     inkscape:window-maximized="1" />
  <metadata
     id="metadata1615">
    <rdf:RDF>
      <cc:Work
         rdf:about="">
        <dc:format>image/svg+xml</dc:format>
        <dc:type
           rdf:resource="http://purl.org/dc/dcmitype/StillImage" />
        <dc:title></dc:title>
      </cc:Work>
    </rdf:RDF>
  </metadata>
  <g
     inkscape:label="Layer 1"
     inkscape:groupmode="layer"
     id="layer1">
    <g
       id="g2480"
       transform="translate(3.6512477,2.6722895)">
      <circle
         style="fill:#404040;fill-opacity:1;stroke:none;stroke-width:3.55151;stroke-linecap:square;stroke-miterlimit:1.75;paint-order:markers stroke fill"
         id="path2208"
         cx="39.343544"
         cy="40.322502"
         r="42.994793" />
      <path
         id="path1573"
         style="fill:#ffffff;fill-opacity:1;fill-rule:nonzero;stroke:none;stroke-width:0.263037;stroke-linecap:square;stroke-linejoin:round;stroke-miterlimit:1.75;stroke-dasharray:none;stroke-opacity:1;paint-order:markers stroke fill"
         d="M 39.593832,5.9523848 C 30.662964,5.9771811 22.106351,9.5423433 15.80003,15.866219 9.4937077,22.190095 5.9523331,30.756594 5.9523517,39.687508 c 2.59e-5,9.049023 3.6354591,17.718662 10.0895973,24.061278 1.700818,-1.053653 3.271058,-2.07283 4.364617,-2.854657 2.61451,-1.639683 5.003535,-3.976406 7.711277,-4.736408 0.951167,-0.267279 2.213153,-0.398186 3.441776,-0.395832 0.955597,0.0018 1.89099,0.08402 2.644337,0.245476 1.247095,0.23645 2.258029,0.494622 3.763187,0.688171 0.768057,0.0059 2.295228,-0.152182 2.295228,-0.152182 0.856826,-0.137462 4.37701,-0.279711 5.330981,0.02634 0.06802,0.0066 0.309256,0.144497 0.380761,0.307714 0.316262,0.614994 0.128266,1.418207 -0.548012,1.942165 -0.962749,0.661211 -2.951823,0.917329 -4.195236,1.132558 l 4.145016,0.356251 4.585436,-2.440259 c 0.49,-0.181613 1.409031,-0.494425 1.927094,-0.403136 0.330326,0.05904 0.519847,0.06868 0.890731,0.311218 0.661289,-0.403227 1.307406,-0.860007 2.598376,-1.261298 0.357054,-0.08938 0.91394,-0.207497 1.391106,-0.198752 0.216891,0.004 0.417291,0.03419 0.57495,0.105158 0.630002,0.233226 1.04203,0.99897 0.645256,1.612841 -0.05516,0.08581 -0.761068,0.544515 -0.761068,0.549994 1.01516,0.0087 2.613229,0.154272 3.447103,0.782982 0.405788,0.306777 0.816551,0.958755 0.426873,1.473591 -0.564516,0.435505 -1.675221,0.366399 -2.330382,0.426724 -0.544516,0.05161 -0.650322,0.05644 -1.153548,0.169988 l -1.75802,0.145185 c -0.539999,0.07097 -1.709383,0.460587 -2.241967,0.661241 l -2.741884,0.983859 c -1.30645,0.274196 -1.059043,0.199061 -1.059043,0.199061 -0.230426,0.06114 -0.470611,0.09963 -0.709783,0.150356 l -3.314552,1.406022 -2.497326,0.760767 -1.112918,0.354737 c -1.196773,0.559358 -1.9641,1.584267 -3.435385,1.500077 l -1.758171,-0.241974 -6.548295,-0.644496 c -2.067099,-0.02355 -3.374558,-0.08132 -5.387135,0.5961 -0.940311,0.316022 -1.876267,0.750896 -2.797434,1.261604 5.260204,3.174733 11.287535,4.852652 17.431529,4.852676 8.947118,2.3e-5 17.527795,-3.554191 23.854379,-9.880754 C 69.868385,57.215328 73.42263,48.634656 73.422648,39.68752 73.42263,30.740376 69.868385,22.1597 63.541803,15.833136 57.215219,9.5065715 48.634542,5.9523583 39.687424,5.9523848 c -0.0312,-4.42e-5 -0.0624,-4.42e-5 -0.0936,0 z m 7.239964,1.860136 c 0.02441,7.95e-5 0.04894,0.00147 0.07366,0.00442 l -0.04991,-0.0035 h 0.02527 l 0.02465,0.0035 h 0.0012 c 0.02082,0.00235 0.04209,0.0061 0.06346,0.010337 0.150017,-8.849e-4 0.28716,-0.00489 0.476636,0.12829 0.104975,0.073776 0.198904,0.2215383 0.221427,0.3462178 0.02252,0.1246795 0.003,0.213855 -0.01552,0.2847365 -0.07394,0.2835201 -0.195002,0.4535488 -0.296149,0.7965271 l -5.89e-4,0.00118 -5.89e-4,0.00118 c -1.036978,3.4493798 -1.821642,6.5695438 -2.484694,9.3247388 -0.04432,0.184172 -0.136887,0.286268 -0.17775,0.339978 -0.01758,0.02311 -0.02214,0.03209 -0.02436,0.03576 l -0.768253,3.595492 c 0.05548,0.151095 0.110466,0.302842 0.163292,0.457159 0.924371,2.700316 1.401205,5.896762 1.326887,9.182144 2.781294,-2.471389 6.619996,-4.795336 11.698023,-5.303139 l 0.534315,-0.05357 -0.05053,0.534468 c -0.259075,2.752628 -1.393154,7.254393 -4.041838,11.328694 3.856142,-0.535887 7.755091,-0.01423 10.579325,1.714042 l 0.304821,0.187035 -0.119005,0.336934 c -1.973942,5.590078 -6.821806,9.698156 -12.266458,11.269117 -4.657365,1.343806 -9.775856,0.795955 -13.882462,-2.282298 -0.31512,0.314247 -0.710138,0.655753 -1.245316,1.063461 l -0.01263,0.0098 -0.01384,0.0093 c -2.658506,1.732321 -7.13769,2.305553 -11.697418,0.928323 C 20.619729,50.685527 15.987426,47.312489 13.153023,41.101441 L 12.960968,40.67989 13.39119,40.507924 c 4.201027,-1.680415 7.530969,-2.16287 10.439467,-1.761221 -1.355965,-3.093495 -2.223158,-6.969432 -2.420932,-11.755566 l -0.02526,-0.607974 0.586057,0.164511 c 4.827358,1.354285 8.220149,3.489473 10.661503,5.719056 -0.172464,-6.077288 1.771363,-12.27805 6.520899,-15.723143 l 0.247907,-0.180034 0.255363,0.169077 c 1.40867,0.934011 2.610008,2.508059 3.551654,4.487282 l 0.462026,-2.194029 c -0.0046,0.02186 -5e-6,-0.0017 -0.008,-0.07366 -0.008,-0.07197 -0.02877,-0.192635 0.0056,-0.354283 0.692695,-3.253042 1.674235,-6.405258 2.252466,-9.5139036 8.83e-4,-0.2288061 0.07017,-0.4102934 0.19038,-0.6122361 0.06558,-0.1101551 0.150451,-0.2212379 0.279562,-0.3145628 0.112741,-0.081489 0.273109,-0.1452616 0.443918,-0.1447256 z"
         sodipodi:nodetypes="cssccccccccccccccccsccccccccccccccccccccsscsccsccccccssscccssccsccccccccsccccscccccccccccccsccsss" />
      <path
         d="M 37.962668,4.1282299 C 30.376576,4.208474 22.834536,6.7974156 16.825303,11.415372 11.141382,15.753113 6.8225257,21.856491 4.6724159,28.656563 c -2.043477,6.389391 -2.2078271,13.37823 -0.426892,19.845151 0.0301,0.110713 0.064765,0.219878 0.09597,0.330278 0.095122,0.455757 0.1971342,0.910124 0.3110698,1.3617 1.3884479,5.566911 4.1757362,10.793933 8.0367863,15.058019 l 0.453375,0.485048 c 0.429614,0.456357 0.868177,0.904391 1.322595,1.336474 1.204444,1.151808 2.492022,2.21547 3.847546,3.185369 l 0.423904,0.385183 c 0.02084,-0.01572 0.04301,-0.03035 0.06397,-0.04607 3.838344,2.650759 8.196621,4.551958 12.771319,5.513823 6.33172,1.347768 13.042406,0.940122 19.143697,-1.217992 4.850762,-1.696982 9.325043,-4.467348 13.002875,-8.04952 1.629044,-1.416983 3.129774,-2.978795 4.465244,-4.673305 3.644459,-4.600395 6.122196,-10.11135 7.094177,-15.886129 C 76.42416,39.614296 75.583994,32.610849 72.865611,26.407417 70.283548,20.481521 66.030662,15.263491 60.692947,11.572441 59.237969,10.558952 57.702958,9.6611398 56.111867,8.8775353 51.256757,6.0777914 45.729,4.4338419 40.121887,4.1713094 39.402643,4.1361287 38.682101,4.123614 37.962065,4.1285232 Z m 0.380564,0.5716917 c 3.131636,-0.00613 6.259425,0.4237467 9.277035,1.25198 C 46.12061,5.6405952 44.601473,5.4254635 43.072282,5.3143679 42.062124,5.2392156 41.048405,5.2081814 40.035477,5.2145085 32.390644,5.2870399 24.800601,7.9086921 18.763692,12.578055 17.694285,13.400759 16.674974,14.287847 15.708134,15.229093 10.837152,19.467956 7.1455379,25.048857 5.2247288,31.205662 4.2525215,34.297214 3.7177335,37.525392 3.6274819,40.76419 3.6047519,40.204369 3.5908079,39.64373 3.5965989,39.083163 3.63295,32.633094 5.5145254,26.197071 9.0104959,20.762184 12.515453,15.269599 17.596815,10.771069 23.528108,8.0182437 28.142623,5.8541767 33.238893,4.6998389 38.343354,4.7001214 Z m 2.002082,1.0873721 c 5.332512,-0.015716 10.656783,1.2251235 15.439885,3.5606522 0.857784,0.4922119 1.696706,1.0172531 2.508405,1.5822521 4.989753,3.456439 9.020062,8.251209 11.596575,13.727108 C 67.212174,19.860685 63.411618,15.685303 58.836353,12.613362 53.594764,9.0723256 47.390008,6.956574 41.062241,6.6015146 40.23727,6.5525946 39.411113,6.5332266 38.584729,6.5389626 33.779773,6.5854866 28.997632,7.6409403 24.607616,9.5773065 24.825395,9.4677195 25.041495,9.3550955 25.26174,9.2503188 29.946457,6.9992867 35.139136,5.7923659 40.345256,5.7873096 Z m -1.406412,1.3243941 c 7.189616,-0.015071 14.362856,2.259573 20.213955,6.4135382 5.592876,3.951782 9.954204,9.59448 12.372015,15.979377 0.341752,0.897876 0.639837,1.8112 0.90342,2.734412 0.94408,4.528475 0.978139,9.246166 0.07169,13.782729 -1.415276,7.209066 -5.229954,13.918123 -10.690111,18.859745 -4.973264,4.511507 -11.286516,7.543337 -17.936206,8.592785 -7.073837,1.12271 -14.494448,0.02652 -20.906934,-3.157952 -0.681914,-0.393628 -1.350722,-0.81102 -2.004284,-1.249788 1.528908,-1.007482 3.142875,-1.882096 4.900971,-2.422777 1.210994,-0.362066 2.489878,-0.469276 3.755996,-0.444392 1.420414,-0.01465 2.826487,0.216 4.239165,0.329181 1.581713,0.152333 3.165748,0.298538 4.738821,0.522297 0.5885,0.08405 1.189364,-0.03433 1.713084,-0.309428 0.834515,-0.416859 1.533708,-1.112934 2.468696,-1.318891 1.106343,-0.368865 2.251319,-0.640175 3.340151,-1.065461 1.014512,-0.440173 2.051388,-0.83484 3.045619,-1.316754 0.116208,-0.03454 0.271138,-0.270144 0.323206,-0.08011 0.180619,0.142968 0.41717,-0.02018 0.618825,-0.02416 0.838246,-0.145898 1.615773,-0.501072 2.416855,-0.77248 0.985084,-0.350114 1.966838,-0.737873 2.997048,-0.933774 0.829887,-0.10551 1.673548,-0.107207 2.492986,-0.287487 0.873879,-0.113473 1.809603,0.01678 2.623109,-0.386238 0.365816,-0.216514 0.442915,-0.708376 0.282389,-1.076416 -0.261287,-0.679725 -0.970174,-1.041979 -1.638081,-1.221248 -0.608998,-0.171634 -1.239573,-0.253032 -1.870825,-0.283093 0.313308,-0.179766 0.560667,-0.50218 0.5372,-0.876751 0.0071,-0.767031 -0.746073,-1.390184 -1.496888,-1.345239 -1.265385,-0.01402 -2.464802,0.512007 -3.533192,1.143385 -0.148371,0.05231 -0.29466,0.261253 -0.444542,0.215068 -0.656838,-0.373914 -1.459386,-0.282891 -2.148809,-0.05489 -0.869193,0.250514 -1.619386,0.772985 -2.424589,1.167483 -0.886591,0.469675 -1.772953,0.939222 -2.65954,1.408891 l -2.704776,-0.231484 c 1.0057,-0.181507 2.050424,-0.375286 2.920973,-0.938157 0.643849,-0.477751 0.952667,-1.457881 0.50411,-2.162719 -0.33436,-0.42465 -0.934705,-0.388206 -1.420756,-0.440004 -1.736463,-0.11804 -3.478913,0.01083 -5.206568,0.189831 -0.686544,0.0626 -1.382859,0.09718 -2.05946,-0.04168 -1.772497,-0.280026 -3.524664,-0.814053 -5.337829,-0.797705 -0.216137,-0.0061 -0.432442,2.42e-4 -0.648588,0.0011 -1.666771,0.0356 -3.373925,0.318407 -4.832577,1.16091 -2.060534,1.09855 -3.813773,2.664522 -5.783324,3.905208 -1.874265,1.28149 -3.797726,2.487626 -5.744911,3.655054 C 13.296461,62.191588 11.845999,60.283874 10.61998,58.238571 7.502292,53.092557 5.7469076,47.128901 5.642876,41.116478 5.5074331,34.681578 7.1951657,28.210165 10.52843,22.691003 c 1.548845,-2.585418 3.442432,-4.966173 5.606943,-7.069735 2.371838,-2.058673 5.019461,-3.801333 7.869611,-5.137408 4.647048,-2.1989475 9.784207,-3.3748029 14.933281,-3.3730035 z m 7.688318,2.37671 c -0.431091,0.09665 -0.556189,0.6028692 -0.589065,0.9656212 -0.596576,3.10688 -1.551726,6.132643 -2.190714,9.231552 0.05021,0.531605 -0.176086,1.03602 -0.248195,1.555913 -0.09481,0.448427 -0.189727,0.896864 -0.284594,1.345239 -0.04995,-0.122583 -0.09223,-0.248064 -0.144504,-0.36978 -0.777243,-1.782546 -1.843263,-3.51161 -3.427295,-4.691957 -0.108432,-0.04381 -0.242464,-0.233319 -0.346364,-0.194206 -2.540315,1.805917 -4.318405,4.530047 -5.280445,7.457943 -0.88958,2.64615 -1.201791,5.465451 -1.062289,8.247277 -2.935377,-2.815873 -6.671153,-4.705836 -10.573201,-5.812419 -0.127317,0.0032 -0.425466,-0.209112 -0.424686,-0.045 0.166804,3.89049 0.736469,7.822554 2.282266,11.424839 0.06899,0.158149 0.138745,0.3155 0.211792,0.471825 -2.663944,-0.453325 -5.396564,-0.007 -7.953198,0.777986 -0.919742,0.284205 -1.823046,0.61686 -2.719123,0.967821 1.539077,3.437564 3.96107,6.537143 7.153475,8.59503 3.507776,2.277498 7.872436,3.320148 12.023547,2.61368 1.334457,-0.233159 2.645532,-0.673937 3.790167,-1.405631 0.101066,-0.182251 -0.151487,-0.358099 -0.304447,-0.234819 -2.388108,0.955741 -4.999809,1.4085 -7.564066,1.100574 -3.013932,-0.354386 -5.821722,-1.769676 -8.113024,-3.724135 -2.108088,-1.781985 -3.846362,-3.958298 -5.233003,-6.334336 1.357896,-0.657479 2.755833,-1.267878 4.243569,-1.561423 1.675018,-0.33898 3.428654,-0.318618 5.092937,0.05268 1.272953,2.447721 3.172129,4.636678 5.642241,5.938264 1.620573,0.862647 3.44147,1.332148 5.27491,1.420968 2.268034,2.773006 5.63648,4.620163 9.206437,5.047469 4.690534,0.590063 9.521018,-1.001359 13.153105,-3.956782 2.426791,-1.966258 4.34246,-4.579993 5.362053,-7.532665 -2.281136,-1.399733 -5.000651,-1.933614 -7.656689,-1.935581 -1.064096,-2.86e-4 -2.128873,0.08738 -3.178005,0.263345 2.152481,-3.159865 3.533986,-6.822542 4.096842,-10.595055 0.04591,-0.320003 0.07938,-0.641747 0.113631,-0.96338 -3.725158,0.325109 -7.321211,1.77721 -10.271045,4.051108 -0.581778,0.442057 -1.14085,0.912539 -1.676711,1.407825 0.129658,-3.269471 -0.289087,-6.587147 -1.403132,-9.67145 0.236251,-1.097314 0.471791,-2.194573 0.708172,-3.291832 0.305832,-0.410032 0.29346,-0.948999 0.452263,-1.417655 0.703996,-2.829636 1.431599,-5.652867 2.31977,-8.430415 0.105896,-0.202634 0.261122,-0.5297902 0.01439,-0.6945552 -0.150542,-0.08587 -0.333434,-0.06173 -0.498592,-0.07351 z m 16.457053,4.6535182 c 4.017261,3.437339 7.237059,7.795026 9.319959,12.64283 2.257247,5.224378 3.170038,11.009103 2.659535,16.672083 -0.429127,4.900446 -1.935209,9.702347 -4.375897,13.979359 -0.231053,0.406639 -0.47387,0.806862 -0.721388,1.203721 1.926342,-3.490037 3.264754,-7.3012 3.902727,-11.234948 C 74.7092,42.306986 74.40337,37.026762 72.979003,32.059856 72.492732,29.750337 71.774957,27.489247 70.82692,25.327199 69.008676,21.147102 66.357325,17.329365 63.084385,14.142816 Z m -23.677734,4.451619 0.232749,0.242497 c 1.457184,1.583274 2.543419,3.457676 3.314736,5.460057 -1.267754,5.987142 -2.540311,11.97372 -3.794624,17.963671 -0.02735,0.138319 0.0159,0.288336 0.130174,0.376363 0.274091,-0.141779 0.221368,-0.490364 0.332025,-0.732984 0.331408,-1.210236 0.536416,-2.451036 0.82068,-3.672567 0.937924,-4.370328 1.877829,-8.739418 2.818351,-13.109126 0.481561,1.436645 0.806051,2.927672 0.977345,4.422013 0.161498,1.385126 0.193145,2.7843 0.114706,4.176224 -1.165137,1.196922 -2.366021,2.405587 -3.153718,3.89313 -0.07603,0.125046 -0.0571,0.365926 0.137887,0.340157 0.211192,-0.08899 0.253993,-0.355065 0.419173,-0.501457 0.744548,-0.973492 1.628196,-1.83693 2.512806,-2.690535 -0.456234,4.322912 -2.075442,8.589978 -4.947336,11.906307 -1.695914,-1.448891 -2.845464,-3.435036 -3.687604,-5.474273 -0.737034,-1.804903 -1.223647,-3.708521 -1.497957,-5.638825 1.085051,1.209288 2.247531,2.358062 3.233124,3.647346 0.111589,0.14265 0.173722,0.327845 0.264741,0.472924 0.179029,0.114345 0.363436,-0.139952 0.242679,-0.29626 -0.50529,-1.41451 -1.490109,-2.58098 -2.424592,-3.734031 -0.480902,-0.576071 -0.982317,-1.133157 -1.489149,-1.686533 -0.291864,-3.881838 0.288332,-7.905137 2.176372,-11.350117 0.838015,-1.514567 1.938937,-2.89284 3.26735,-4.013808 z M 9.3829599,23.530159 C 8.3417933,25.42108 7.4743504,27.405202 6.8061633,29.455505 4.8083198,35.529724 4.5060495,42.155637 5.9788774,48.37705 7.3565957,54.272055 10.295813,59.792898 14.41948,64.23789 14.38818,64.25657 14.35702,64.27526 14.3257,64.29384 12.087428,62.167366 10.13025,59.748915 8.5480229,57.099952 6.9736479,54.491838 5.7549159,51.672819 4.917802,48.746497 4.4163974,46.353271 4.1659136,43.90892 4.1930795,41.462712 4.2367573,35.163769 6.0306967,28.87775 9.3831009,23.52994 Z m 13.9228981,5.215338 c 0.06252,0.01635 0.124976,0.03293 0.187538,0.04937 3.646091,0.991697 7.008888,2.996098 9.643014,5.699497 0.116274,0.287841 0.07635,0.611353 0.153334,0.910739 0.499022,3.345601 1.654065,6.649511 3.716294,9.365269 0.565231,0.729839 1.195859,1.412488 1.907254,2.003618 -0.946568,0.09774 -1.901097,0.118612 -2.850378,0.04829 -2.163044,-2.249014 -4.380249,-4.519939 -7.094739,-6.115237 -1.012759,-0.587984 -2.096058,-1.059672 -3.227591,-1.369395 -1.471923,-3.109863 -2.13599,-6.552318 -2.394769,-9.966397 -0.0052,-0.208963 -0.04333,-0.416977 -0.03971,-0.625456 z m 32.284944,0.286388 c -0.04789,0.205481 -0.09552,0.410089 -0.143408,0.615569 -0.846378,3.436609 -2.048507,6.846702 -4.056008,9.797294 -3.058045,0.734841 -5.997938,2.215472 -8.141834,4.539432 -0.640911,0.696522 -1.200261,1.467149 -1.662362,2.292212 -0.588611,0.146026 -1.181235,0.276628 -1.779273,0.378561 2.573518,-2.757668 4.149414,-6.327595 4.824889,-10.006285 0.159952,-0.844728 0.266591,-1.698445 0.341955,-2.554465 2.655924,-2.412891 5.919997,-4.266281 9.485441,-4.90151 0.377059,-0.06595 0.752168,-0.121289 1.130684,-0.161315 z m -0.958594,10.983824 c 2.366584,0.02103 4.710979,0.571523 6.905534,1.434115 -1.232231,3.265263 -3.778815,5.943323 -6.83155,7.617496 -3.367545,1.870412 -7.420613,2.655535 -11.240202,1.955358 -2.579676,-0.471834 -5.046512,-1.705523 -6.847927,-3.611106 -0.208635,-0.155198 0.0024,-0.108187 0.136791,-0.107528 0.945267,-0.0057 1.883532,-0.131927 2.818352,-0.25676 0.583979,-0.04714 1.163666,-0.137746 1.739571,-0.244693 -0.133097,0.285968 -0.287184,0.579388 -0.372845,0.875627 0.04866,0.205906 0.350597,0.152969 0.387185,-0.03511 0.210912,-0.334643 0.40992,-0.679724 0.671802,-0.978774 3.551829,-0.787592 6.815167,-2.749746 9.19853,-5.479778 0.279091,-0.309388 0.542515,-0.63225 0.801927,-0.95793 0.866877,-0.147617 1.749171,-0.213855 2.633051,-0.210683 z m 19.087784,0.204101 c 0.128778,2.967783 -0.119108,5.951187 -0.756687,8.854025 -1.383592,6.379843 -4.642586,12.335521 -9.25614,16.972646 -0.162184,0.163799 -0.330883,0.321313 -0.496389,0.481704 -1.222573,1.05574 -2.517778,2.028727 -3.879513,2.901209 -5.187032,3.349303 -11.284821,5.295728 -17.468568,5.531351 -3.629317,0.150613 -7.281113,-0.274791 -10.780473,-1.241028 0.182574,0.03792 0.363914,0.07922 0.547128,0.114111 6.288231,1.217543 12.928884,0.704279 18.943201,-1.512036 5.940896,-2.169742 11.298941,-5.96242 15.273281,-10.866405 4.003763,-4.914151 6.654772,-10.912472 7.53639,-17.175456 0.193918,-1.344737 0.302606,-2.701323 0.337539,-4.059934 z m -47.500613,0.0439 0.167685,0.05487 c 2.95729,1.009336 5.518163,2.919918 7.725029,5.08803 0.446998,0.437467 0.878678,0.887764 1.299441,1.349623 C 32.85591,46.46454 30.368121,45.298905 28.572639,43.447931 27.63793,42.51 26.859271,41.424539 26.219773,40.263629 Z m 24.361679,0.280901 c 0.0097,0.01167 -0.08473,0.09005 -0.08824,0.113029 -1.827171,2.275812 -4.284631,4.05145 -7.038824,5.037582 -0.323051,0.119462 -0.650001,0.228811 -0.979547,0.329184 2.055563,-2.554691 4.861152,-4.578476 8.054853,-5.46444 0.03366,-0.0155 0.0486,-0.01933 0.05187,-0.01529 z m -19.4628,15.236665 c 0.41412,-0.0119 0.829546,-0.0063 1.240987,0.01001 1.763066,0.0615 3.463273,0.557607 5.201037,0.828435 2.399119,-0.02782 4.783721,-0.441853 7.185663,-0.336857 0.316415,0.02365 0.764934,0.05052 0.862583,0.419155 0.171488,0.548452 -0.159135,1.10153 -0.598943,1.41878 -0.719811,0.529768 -1.651752,0.553797 -2.502868,0.717592 -0.691346,0.102222 -1.381392,0.203018 -2.07601,0.250182 -0.808873,-0.117233 -1.505077,-0.576468 -2.186309,-0.994114 -0.66147,-0.417542 -1.28459,-1.008267 -2.100296,-1.082986 -0.164033,0.0093 -0.418198,-0.04141 -0.49749,0.140462 -0.03607,0.201849 0.216806,0.251849 0.362914,0.279804 0.663446,0.232997 1.167169,0.74731 1.711955,1.168608 0.711392,0.611692 1.619896,0.917988 2.508401,1.174056 0.808481,0.222487 1.647966,0.304324 2.485246,0.288582 0.572233,-0.0024 1.144408,0.01572 1.715285,0.04281 -1.006603,0.531938 -1.998182,1.095405 -2.942996,1.729284 -0.169835,0.174501 0.142569,0.386494 0.292318,0.241405 1.069348,-0.583099 2.164735,-1.116361 3.247471,-1.674459 1.166489,-0.599725 2.366866,-1.138999 3.504499,-1.795128 0.826325,-0.44081 1.682923,-0.876078 2.614298,-1.039113 0.463467,-0.04483 1.005643,0.06604 1.307122,0.435622 -0.05872,0.230128 -0.340984,0.282127 -0.516239,0.402695 -0.754602,0.37442 -1.539135,0.704166 -2.217208,1.21136 -1.401945,0.920462 -2.732223,1.946538 -4.147611,2.847446 -1.432275,0.875347 -2.863762,1.752267 -4.296488,2.626882 -0.108281,0.187643 0.153914,0.364875 0.307761,0.230428 1.568494,-0.691185 3.01139,-1.624621 4.479587,-2.499575 1.290347,-0.823773 2.515349,-1.748052 3.839807,-2.51935 0.832427,-0.528188 1.684904,-1.024509 2.542631,-1.50985 0.349347,-0.206075 0.701566,-0.600568 0.561468,-1.033606 -0.04082,-0.143987 -0.184851,-0.277638 0.03863,-0.328082 0.811245,-0.468094 1.715341,-0.808379 2.630847,-0.97984 0.411456,-0.04422 0.898336,-0.09503 1.238783,0.188726 0.232311,0.169617 0.324275,0.570117 0.03971,0.739557 -0.267818,0.165942 -0.565568,0.279425 -0.836154,0.442201 -0.825479,0.413849 -1.637743,0.857819 -2.380424,1.408892 -1.620459,1.103831 -3.201049,2.269406 -4.828172,3.360934 -1.169032,0.556966 -2.369862,1.047313 -3.577302,1.514229 -1.135766,0.371772 -2.294294,0.679388 -3.412949,1.099451 -0.91189,0.392772 -1.750016,0.9881 -2.748883,1.142257 -1.094539,0.113327 -2.150897,-0.277862 -3.239734,-0.334664 -1.942496,-0.191255 -3.884201,-0.385068 -5.828502,-0.554126 -1.91121,-0.08547 -3.830776,0.288755 -5.604741,0.987539 -1.444309,0.579937 -2.774531,1.382474 -4.052736,2.262596 -1.264151,-1.63792 -2.653433,-3.2792 -5.044365,-4.28263 2.148129,-1.308667 4.261809,-2.670477 6.365608,-4.04785 1.904768,-1.298273 3.630052,-2.880199 5.735884,-3.863524 1.13599,-0.509465 2.373531,-0.69877 3.615871,-0.734053 z M 7.5145069,56.464877 c 1.684278,2.999018 3.8068861,5.753428 6.2961411,8.13716 -0.201722,0.118696 -0.404476,0.235451 -0.606683,0.353326 C 11.531545,63.124276 10.055274,61.115714 8.8225309,58.964288 8.350891,58.150012 7.9171931,57.314889 7.5142803,56.464714 Z m 49.4699961,2.003614 c 1.089174,-0.0011 2.258884,0.155793 3.09086,0.911809 0.135223,0.130608 0.301529,0.30285 0.286802,0.500352 -0.16167,0.258215 -0.52585,0.199874 -0.787586,0.242497 -0.834342,0.06907 -1.709636,-0.04714 -2.503996,0.265543 -0.662144,0.215552 -1.378736,0.127255 -2.050653,0.302846 -0.628257,0.174266 -1.218564,0.461671 -1.829989,0.685793 -0.967015,0.375244 -1.925104,0.778997 -2.90663,1.113718 -0.138983,0.03966 -0.279396,0.07116 -0.418071,0.111923 2.218165,-1.414676 4.424071,-2.85385 6.725373,-4.133413 0.131269,-2.87e-4 0.262537,-5.63e-4 0.393795,-0.0011 z m -42.093435,6.260176 c 0.253133,0.262263 0.509536,0.520528 0.771036,0.774671 -0.282344,-0.2418 -0.559498,-0.48893 -0.833952,-0.739556 0.02062,-0.0121 0.04215,-0.02298 0.06286,-0.03512 z m -0.585731,0.337959 c 1.672985,1.545915 3.497556,2.928291 5.439317,4.125774 -0.318778,0.230065 -0.632267,0.465888 -0.945324,0.702254 -1.854504,-1.313609 -3.577638,-2.808457 -5.140381,-4.454933 0.215988,-0.123539 0.431168,-0.248249 0.646388,-0.373072 z m 5.985515,4.454934 c 0.794528,0.470634 1.607864,0.909954 2.436733,1.317824 3.36082,1.933164 7.036562,3.325708 10.849943,4.062118 6.378594,1.254677 13.113002,0.724167 19.197912,-1.552655 0.682197,-0.252994 1.355581,-0.530167 2.020833,-0.825177 -3.15174,1.601645 -6.544641,2.733849 -10.036662,3.314866 -7.469745,1.253384 -15.351217,0.01889 -22.036489,-3.534306 -1.181966,-0.620288 -2.324399,-1.312992 -3.426167,-2.065078 0.329064,-0.241895 0.65757,-0.484315 0.993897,-0.717592 z"
         fill="#ffffff"
         style="stroke-width:0.56329;paint-order:markers stroke fill"
         id="path2432"
         sodipodi:nodetypes="ccccccccccccccccccccccccccccccccccccccccccccccccccccccccccccccccccccccccccccccccccccccccccccccccccccccccccccccccccccccccccccccccccccccccccccccccccccccccccccccccccccccccccccccccccccccccccccccccccccccccccccccccccccccccccccccccccccccccccccccccccccccccccccccccccccccccccccccccccccccccccccccccccccccccccccccccccccccccccccccccccccccccccccccccccc" />
      <path
         id="rect2471"
         style="fill:#404040;fill-opacity:1;stroke:none;stroke-width:3;stroke-linecap:square;stroke-miterlimit:1.75;paint-order:markers stroke fill"
         d="m 12.998122,65.817571 2.402719,-1.390695 c 2.979817,0.524335 4.665584,1.948878 5.044365,4.28263 l -2.598831,1.867158 z"
         sodipodi:nodetypes="ccccc" />
    </g>
  </g>
</svg>
