<?xml version="1.0" encoding="UTF-8"?>
<svg version="1.1" viewBox="0 0 24 24" xmlns="http://www.w3.org/2000/svg" xmlns:cc="http://creativecommons.org/ns#" xmlns:dc="http://purl.org/dc/elements/1.1/" xmlns:rdf="http://www.w3.org/1999/02/22-rdf-syntax-ns#">
<path d="m11.967 1.1764e-5c-3.1768 0.0088203-6.2205 1.277-8.4637 3.5265-2.2432 2.2495-3.5029 5.2967-3.5029 8.4735 9.2221e-6 3.2188 1.2932 6.3027 3.589 8.5589 0.605-0.3748 1.1636-0.73733 1.5525-1.0154 0.93001-0.58326 1.7798-1.4145 2.743-1.6848 0.33834-0.09507 0.78724-0.14164 1.2243-0.1408 0.33992 6.4e-4 0.67265 0.0299 0.94062 0.08732 0.44361 0.08411 0.80321 0.17594 1.3386 0.24479 0.27321 0.0021 0.81644-0.05413 0.81644-0.05413 0.30478-0.04889 1.557-0.09949 1.8963 0.0094 0.0242 0.0023 0.11001 0.0514 0.13544 0.10946 0.1125 0.21876 0.04563 0.50447-0.19493 0.69085-0.34246 0.2352-1.05 0.32631-1.4923 0.40286l1.4744 0.12672 1.6311-0.86803c0.1743-0.0646 0.50121-0.17587 0.68549-0.1434 0.1175 0.02103 0.18492 0.02443 0.31685 0.1107 0.23523-0.14344 0.46506-0.30592 0.92427-0.44866 0.12701-0.0318 0.3251-0.07381 0.49483-0.0707 0.07715 0.0014 0.14844 0.01217 0.20452 0.03742 0.2241 0.08296 0.37066 0.35534 0.22953 0.57371-0.0196 0.03053-0.27072 0.19369-0.27072 0.19564 0.3611 0.0031 0.92956 0.05488 1.2262 0.27852 0.14434 0.10913 0.29046 0.34104 0.15184 0.52417-0.20081 0.15492-0.5959 0.13033-0.82894 0.15179-0.19369 0.01837-0.23133 0.0201-0.41033 0.06047l-0.62535 0.05164c-0.19208 0.02523-0.60805 0.16384-0.7975 0.23521l-0.97532 0.34994c-0.46472 0.09753-0.37671 0.07081-0.37671 0.07081-0.08197 0.02173-0.1674 0.03545-0.25248 0.05348l-1.179 0.50013-0.88833 0.27061-0.39588 0.12618c-0.42571 0.19897-0.69865 0.56354-1.222 0.5336l-0.6254-0.086078-2.3293-0.22926c-0.73529-0.008377-1.2004-0.028926-1.9163 0.21204-0.33448 0.11241-0.66741 0.2671-0.99508 0.44877 1.8711 1.1293 4.0151 1.7261 6.2006 1.7262 3.1826 8e-6 6.2348-1.2643 8.4853-3.5147s3.5147-5.3027 3.5147-8.4853c-6e-6 -3.1826-1.2643-6.2349-3.5147-8.4853-2.2504-2.2504-5.3027-3.5147-8.4853-3.5147-0.0111-1.5685e-5 -0.02217-1.5685e-5 -0.0333 0zm2.5753 0.66167c0.0087 2.824e-5 0.01743 5.2289e-4 0.0262 0.001572l-0.01777-0.001245h9e-3l0.0088 0.001245h4.27e-4c0.0074 8.3594e-4 0.01497 0.00217 0.02257 0.003677 0.05336-3.1479e-4 0.10215-0.001739 0.16954 0.045634 0.03734 0.026239 0.07075 0.078804 0.07876 0.12315 8e-3 0.04435 0.0011 0.076071-0.0055 0.10128-0.0263 0.10085-0.06936 0.16133-0.10535 0.28333l-2.09e-4 4.197e-4 -2.1e-4 4.197e-4c-0.3689 1.227-0.64801 2.3369-0.88387 3.3169-0.01573 0.065514-0.04869 0.10183-0.06323 0.12094-0.0062 0.00823-0.0079 0.0114-0.0086 0.012766l-0.27328 1.279c0.0197 0.053745 0.03929 0.10772 0.05809 0.16262 0.32881 0.96052 0.49842 2.0975 0.47199 3.2662 0.98933-0.87912 2.3548-1.7058 4.1611-1.8864l0.19006-0.019033-0.018 0.19012c-0.09215 0.97914-0.49555 2.5805-1.4377 4.0297 1.3717-0.19062 2.7586-0.0051 3.7632 0.60971l0.10843 0.06653-0.04233 0.11986c-0.70215 1.9884-2.4266 3.4497-4.3633 4.0085-1.6567 0.47801-3.4774 0.28313-4.9382-0.81184-0.11209 0.11178-0.2526 0.23326-0.44297 0.37829l-0.0045 0.0035-0.0049 0.0033c-0.94572 0.61619-2.539 0.8201-4.161 0.3302-1.6219-0.48993-3.2697-1.6898-4.2779-3.8991l-0.068316-0.14995 0.15304-0.06117c1.4944-0.59774 2.6789-0.76935 3.7134-0.62648-0.48233-1.1004-0.7908-2.4791-0.86116-4.1816l-0.00897-0.21626 0.20847 0.058518c1.7171 0.48173 2.924 1.2412 3.7924 2.0343-0.061345-2.1618 0.6301-4.3675 2.3196-5.5929l0.08818-0.064041 0.09084 0.060145c0.50108 0.33224 0.92841 0.89215 1.2634 1.5962l0.16435-0.78044c-0.0016 0.00777-2e-6 -6.044e-4 -0.0028-0.026199-0.0028-0.025599-0.01023-0.068524 2e-3 -0.12603 0.2464-1.1571 0.59555-2.2784 0.80123-3.3842 3.14e-4 -0.081389 0.02493-0.14595 0.06772-0.21778 0.0233-0.039184 0.05352-0.078697 0.09944-0.11189 0.04011-0.028986 0.09715-0.051672 0.15791-0.051481z"/>
</svg>
