<?xml version="1.0" encoding="UTF-8"?>
<svg width="128.83" height="129.51" version="1.1" viewBox="0 0 34.086 34.267" xmlns="http://www.w3.org/2000/svg" xmlns:cc="http://creativecommons.org/ns#" xmlns:dc="http://purl.org/dc/elements/1.1/" xmlns:rdf="http://www.w3.org/1999/02/22-rdf-syntax-ns#">
<metadata>
<rdf:RDF>
<cc:Work rdf:about="">
<dc:format>image/svg+xml</dc:format>
<dc:type rdf:resource="http://purl.org/dc/dcmitype/StillImage"/>
<dc:title/>
</cc:Work>
</rdf:RDF>
</metadata>
<g transform="translate(-4.2075 -4.339)" fill="#fff">
<g transform="translate(-.0003807 .13247)" fill="#fff">
<g transform="matrix(.13513 0 0 .13513 6.9549 1.3484)" fill="#fff">
<path transform="matrix(1.958 0 0 1.958 -51.47 -10.958)" d="m77.777 16.4c-13.432 0.14283-26.786 4.7511-37.426 12.971-10.064 7.7211-17.711 18.585-21.518 30.689-3.6182 11.373-3.9092 23.813-0.75586 35.324 0.05329 0.19705 0.11468 0.39138 0.16992 0.58789 0.16843 0.81124 0.34906 1.62 0.55078 2.4238 2.4584 9.909 7.3936 19.213 14.23 26.803-0.86232 0.50156-1.7216 1.0074-2.5879 1.502-2.3865 1.3332-4.7669 2.6888-7.2754 3.7793-0.32413 0.1973 0.03862 0.67184 0.34766 0.51367 2.314-0.64069 4.4224-1.8279 6.5664-2.8789 1.2628-0.66057 2.5117-1.3493 3.752-2.0527 0.76068 0.81231 1.5372 1.6098 2.3418 2.3789 2.1326 2.0502 4.4124 3.9435 6.8125 5.6699-3.6273 2.8418-7.2821 5.6529-10.779 8.6543-0.79704 0.71869-1.6419 1.3922-2.3613 2.1895-0.24869 0.2377 0.05697 0.63925 0.35547 0.48242 0.51776-0.34025 0.97937-0.78125 1.4824-1.1523 4.0151-3.1658 8.0029-6.3671 12.053-9.4883 0.03707-0.028 0.07617-0.054 0.11328-0.082 6.7962 4.7183 14.513 8.1024 22.613 9.8145 11.211 2.399 23.093 1.6734 33.896-2.168 8.5888-3.0206 16.511-7.9518 23.023-14.328 2.8844-2.5222 5.5416-5.3022 7.9062-8.3184 6.4529-8.1886 10.84-17.998 12.561-28.277 2.0293-11.873 0.54169-24.339-4.2715-35.381-4.5718-10.548-12.102-19.836-21.553-26.406-2.5762-1.804-5.2941-3.4021-8.1113-4.7969-8.5965-4.9835-18.384-7.9097-28.312-8.377-1.2735-0.06262-2.5493-0.0849-3.8242-0.07617zm0.67383 1.0176c5.5449-0.01099 11.083 0.75426 16.426 2.2285-2.6553-0.55412-5.3451-0.93705-8.0527-1.1348-1.7886-0.13376-3.5835-0.18902-5.377-0.17774-13.536 0.12912-26.975 4.7956-37.664 13.107-1.8935 1.4644-3.6983 3.0434-5.4102 4.7188-8.6246 7.5451-15.161 17.479-18.562 28.438-1.7214 5.5029-2.6683 11.249-2.8281 17.014-0.04025-0.99647-0.06493-1.9944-0.05469-2.9922 0.06436-11.481 3.3959-22.937 9.5859-32.611 6.2059-9.7767 15.203-17.784 25.705-22.684 8.1705-3.852 17.194-5.9067 26.232-5.9062zm3.5449 1.9355c9.4418-0.02807 18.869 2.1807 27.338 6.3379 1.5188 0.87613 3.0042 1.8107 4.4414 2.8164 8.8349 6.1524 15.971 14.687 20.533 24.434-4.7417-8.5379-11.471-15.97-19.572-21.438-9.2808-6.303-20.267-10.069-31.471-10.701-1.4607-0.08707-2.9235-0.12154-4.3867-0.11133-8.5077 0.08283-16.975 1.9615-24.748 5.4082 0.3856-0.19505 0.76823-0.39553 1.1582-0.58203 8.2948-4.0068 17.489-6.1551 26.707-6.1641zm-2.4902 2.3574c12.73-0.02672 25.431 4.022 35.791 11.416 9.9028 7.0341 17.625 17.078 21.906 28.443 0.60511 1.5982 1.1329 3.2239 1.5996 4.8672 1.6716 8.0606 1.7319 16.458 0.12696 24.533-2.5059 12.832-9.2602 24.774-18.928 33.57-8.8057 8.0304-19.984 13.427-31.758 15.295-12.525 1.9984-25.664 0.0472-37.018-5.6211-1.2074-0.70065-2.3916-1.4436-3.5488-2.2246 2.7071-1.7933 5.5648-3.3501 8.6777-4.3125 2.1442-0.64447 4.4086-0.8353 6.6504-0.79101 2.515-0.0259 5.0046 0.38448 7.5059 0.58594 2.8006 0.27113 5.6053 0.53139 8.3906 0.92968 1.042 0.14958 2.1059-0.0611 3.0332-0.55078 1.4776-0.742 2.7156-1.981 4.3711-2.3476 1.9589-0.65657 3.9862-1.1395 5.9141-1.8965 1.7963-0.7835 3.6322-1.486 5.3926-2.3438 0.20575-0.0615 0.48008-0.48085 0.57227-0.14258 0.3198 0.25447 0.73865-0.0359 1.0957-0.043 1.4842-0.25967 2.8609-0.8919 4.2793-1.375 1.7442-0.6232 3.4825-1.3134 5.3066-1.6621 1.4694-0.1878 2.9632-0.19082 4.4141-0.51172 1.5473-0.20199 3.2041 0.0297 4.6445-0.6875 0.64772-0.38539 0.78423-1.2609 0.5-1.916-0.46264-1.2099-1.7178-1.8547-2.9004-2.1738-1.0783-0.30551-2.1948-0.45039-3.3125-0.5039 0.55475-0.31997 0.99272-0.89387 0.95117-1.5606 0.0124-1.3653-1.321-2.4745-2.6504-2.3945-2.2405-0.0249-4.3642 0.91136-6.2559 2.0352-0.26272 0.0931-0.52173 0.46503-0.78711 0.38282-1.163-0.66556-2.584-0.50354-3.8047-0.0977-1.539 0.44591-2.8673 1.3759-4.293 2.0781-1.5698 0.83601-3.1392 1.6718-4.709 2.5078l-4.7891-0.41204c1.7807-0.32306 3.6305-0.668 5.1719-1.6699 1.14-0.85039 1.6868-2.595 0.89258-3.8496-0.59202-0.75587-1.655-0.691-2.5156-0.7832-3.0746-0.2101-6.1598 0.0192-9.2188 0.33789-1.2156 0.11144-2.4485 0.17299-3.6465-0.0742-3.1384-0.49844-6.2408-1.449-9.4512-1.4199-0.3827-0.0111-0.76569 4.3e-4 -1.1484 2e-3 -2.9512 0.0634-5.9739 0.56676-8.5566 2.0664-3.6484 1.9554-6.7527 4.7428-10.24 6.9512-3.3186 2.281-6.7243 4.4279-10.172 6.5059-2.886-3.1007-5.4542-6.4964-7.625-10.137-5.5202-9.1598-8.6283-19.775-8.8125-30.477-0.2398-11.454 2.7485-22.973 8.6504-32.797 2.7424-4.602 6.0952-8.8397 9.9277-12.584 4.1996-3.6644 8.8875-6.7663 13.934-9.1445 8.2281-3.9141 17.324-6.0071 26.441-6.0039zm13.613 4.2305c-0.76329 0.17204-0.98479 1.0731-1.043 1.7188-1.0563 5.5302-2.7475 10.916-3.8789 16.432 0.08891 0.94625-0.31176 1.8441-0.43945 2.7695-0.16786 0.79819-0.33591 1.5964-0.50391 2.3945-0.08843-0.21819-0.16331-0.44155-0.25586-0.6582-1.3762-3.1729-3.2637-6.2506-6.0684-8.3516-0.19198-0.07796-0.42931-0.4153-0.61328-0.3457-4.4979 3.2145-7.6462 8.0634-9.3496 13.275-1.5751 4.7101-2.1279 9.7284-1.8809 14.68-5.1974-5.0122-11.812-8.3763-18.721-10.346-0.2254 0.0055-0.75333-0.37221-0.75195-0.08008 0.29534 6.925 1.304 13.924 4.041 20.336 0.12216 0.28151 0.24569 0.56158 0.375 0.83984-4.7168-0.80691-9.5552-0.01229-14.082 1.3848-1.6285 0.50588-3.2279 1.098-4.8145 1.7227 2.7251 6.1188 7.0135 11.636 12.666 15.299 6.2109 4.0539 13.939 5.9098 21.289 4.6523 2.3628-0.41502 4.6842-1.1996 6.7109-2.502 0.17897-0.32438-0.26821-0.63741-0.53906-0.41797-4.2284 1.7012-8.8527 2.5071-13.393 1.959-5.3365-0.63081-10.308-3.15-14.365-6.6289-3.7326-3.1719-6.8104-7.0457-9.2656-11.275 2.4043-1.1703 4.8795-2.2568 7.5137-2.7793 2.9658-0.60338 6.0708-0.56714 9.0176 0.09375 2.2539 4.3569 5.6166 8.2532 9.9902 10.57 2.8694 1.5355 6.0935 2.3712 9.3398 2.5293 4.0158 4.9359 9.98 8.2238 16.301 8.9844 8.3051 1.0503 16.858-1.7824 23.289-7.043 4.2969-3.4999 7.6888-8.1523 9.4941-13.408-4.039-2.4915-8.8542-3.4418-13.557-3.4453-1.8841-5.1e-4 -3.7694 0.15552-5.627 0.46875 3.8112-5.6245 6.2573-12.144 7.2539-18.859 0.0813-0.5696 0.14057-1.1423 0.20117-1.7148-6.5958 0.57869-12.963 3.1634-18.186 7.2109-1.0301 0.78685-2.02 1.6243-2.9688 2.5059 0.22956-5.8196-0.51186-11.725-2.4844-17.215 0.41831-1.9532 0.83536-3.9063 1.2539-5.8594 0.54151-0.72985 0.5196-1.6892 0.80078-2.5234 1.2465-5.0367 2.5348-10.062 4.1074-15.006 0.18751-0.36069 0.46235-0.94302 0.02539-1.2363-0.26653-0.15283-0.59038-0.10986-0.88281-0.13086zm29.139 8.2832c7.113 6.1184 12.814 13.875 16.502 22.504 3.9967 9.2993 5.6129 19.596 4.709 29.676-0.75982 8.7227-3.4265 17.27-7.748 24.883-0.40911 0.72381-0.83904 1.4362-1.2773 2.1426 3.4108-6.2122 5.7806-12.996 6.9102-19.998 1.4873-9.0743 0.94579-18.473-1.5762-27.314-0.861-4.1109-2.1319-8.1356-3.8105-11.984-3.2194-7.4405-7.9139-14.236-13.709-19.908zm-41.924 7.9238 0.41211 0.43164c2.5801 2.8182 4.5034 6.1546 5.8691 9.7188-2.2447 10.657-4.4979 21.313-6.7188 31.975-0.04842 0.24619 0.02841 0.51323 0.23047 0.66992 0.48531-0.25235 0.39196-0.87284 0.58789-1.3047 0.58679-2.1542 0.94978-4.3628 1.4531-6.5371 1.6607-7.7791 3.3249-15.556 4.9902-23.334 0.85266 2.5572 1.4272 5.2112 1.7305 7.8711 0.28596 2.4655 0.34195 4.956 0.20312 7.4336-2.063 2.1305-4.1893 4.2819-5.584 6.9297-0.13462 0.22259-0.10112 0.65134 0.24414 0.60547 0.3739-0.15842 0.44972-0.63201 0.74219-0.89258 1.3183-1.7328 2.8829-3.2697 4.4492-4.7891-0.80781 7.6947-3.6748 15.29-8.7598 21.193-3.0028-2.579-5.0382-6.1143-6.5293-9.7441-1.305-3.2127-2.1666-6.6011-2.6523-10.037 1.9212 2.1525 3.9795 4.1973 5.7246 6.4922 0.19754 0.2539 0.30759 0.58356 0.46875 0.8418 0.31698 0.20352 0.6435-0.24911 0.42969-0.52734-0.89467-2.5178-2.6384-4.5941-4.293-6.6465-0.85149-1.0254-1.7393-2.017-2.6367-3.002-0.51678-6.9096 0.51052-14.071 3.8535-20.203 1.4838-2.6959 3.4331-5.1492 5.7852-7.1445zm-53.16 8.7871c-1.8435 3.3658-3.3794 6.8975-4.5625 10.547-3.5374 10.812-4.0726 22.606-1.4648 33.68 2.4394 10.493 7.6436 20.32 14.945 28.232-0.0554 0.0331-0.11059 0.0665-0.16602 0.0996-3.9631-3.7851-7.4285-8.0899-10.23-12.805-2.7876-4.6424-4.9455-9.6602-6.4277-14.869-0.88779-4.2599-1.3313-8.6108-1.2832-12.965 0.07735-11.212 3.2537-22.401 9.1895-31.92zm24.652 9.2832c0.11072 0.02926 0.22131 0.05863 0.33203 0.08789 6.4558 1.7652 12.41 5.333 17.074 10.145 0.20586 0.51235 0.13519 1.0882 0.27148 1.6211 0.88357 5.9551 2.9287 11.836 6.5801 16.67 1.0008 1.2991 2.1174 2.5142 3.377 3.5664-1.676 0.17396-3.3661 0.21114-5.0469 0.08594-3.8299-4.0032-7.7557-8.0454-12.562-10.885-1.7932-1.0466-3.7113-1.8862-5.7148-2.4375-2.6062-5.5355-3.782-11.663-4.2402-17.74-0.0091-0.37193-0.07672-0.74221-0.07031-1.1133zm57.164 0.50977c-0.0848 0.36574-0.16912 0.72995-0.2539 1.0957-1.4986 6.1171-3.6271 12.187-7.1816 17.439-5.4146 1.308-10.62 3.9435-14.416 8.0801-1.1348 1.2398-2.1252 2.6115-2.9434 4.0801-1.0422 0.25991-2.0915 0.49239-3.1504 0.67383 4.5567-4.9086 7.347-11.263 8.543-17.811 0.28319-1.5036 0.47203-3.0232 0.60547-4.5469 4.7026-4.2949 10.482-7.5939 16.795-8.7246 0.66763-0.11741 1.3318-0.2159 2.002-0.28711zm-1.6973 19.551c4.1903 0.03733 8.3413 1.0173 12.227 2.5527-2.1818 5.8121-6.6908 10.579-12.096 13.559-5.9626 3.3293-13.139 4.7268-19.902 3.4805-4.5676-0.83986-8.9354-3.0358-12.125-6.4277-0.36943-0.27624 0.0042-0.19258 0.24219-0.19141 1.6737-0.01011 3.335-0.23483 4.9902-0.45703 1.034-0.08391 2.0604-0.24518 3.0801-0.43555-0.23566 0.50902-0.50849 1.0313-0.66016 1.5586 0.08615 0.3665 0.62077 0.27226 0.68555-0.0625 0.37341-0.59566 0.72581-1.2099 1.1895-1.7422 6.2889-1.4019 12.067-4.8945 16.287-9.7539 0.49416-0.55071 0.96058-1.1254 1.4199-1.7051 1.5349-0.26274 3.0971-0.38066 4.6621-0.375zm33.797 0.36328c0.22801 5.2826-0.2109 10.593-1.3398 15.76-2.4498 11.356-8.2202 21.957-16.389 30.211-0.28716 0.29154-0.58586 0.57193-0.87891 0.85742-2.1647 1.8792-4.458 3.6111-6.8691 5.1641-9.1842 5.9617-19.981 9.4263-30.93 9.8457-6.4261 0.26809-12.892-0.48912-19.088-2.209 0.32327 0.0675 0.64435 0.14102 0.96875 0.20313 11.134 2.1672 22.892 1.2536 33.541-2.6914 10.519-3.8621 20.006-10.613 27.043-19.342 7.0891-8.7471 11.783-19.424 13.344-30.572 0.34334-2.3936 0.53579-4.8083 0.59765-7.2266zm-84.105 0.07813 0.29688 0.09766c5.2362 1.7966 9.7705 5.1974 13.678 9.0566 0.79146 0.77868 1.5558 1.5802 2.3008 2.4023-4.525-0.51919-8.9299-2.594-12.109-5.8887-1.655-1.6695-3.0337-3.6016-4.166-5.668zm43.135 0.5c0.0175 0.02081-0.15001 0.16027-0.15625 0.20117-3.2352 4.0509-7.5864 7.2115-12.463 8.9668-0.572 0.21264-1.1509 0.40728-1.7344 0.58594 3.6396-4.5473 8.6072-8.1496 14.262-9.7266 0.0596-0.02757 0.086-0.03428 0.0918-0.02734zm-34.461 27.121c0.73324-0.021 1.4688-0.0112 2.1973 0.0176 3.1217 0.10947 6.1321 0.99253 9.209 1.4746 4.2479-0.0495 8.4701-0.78649 12.723-0.5996 0.56025 0.0421 1.3544 0.0899 1.5273 0.74609 0.30366 0.97623-0.28178 1.9607-1.0605 2.5254-1.2745 0.94298-2.9246 0.98575-4.4316 1.2773-1.2241 0.18194-2.4459 0.36138-3.6758 0.44532-1.4322-0.20865-2.6649-1.0261-3.8711-1.7695-1.1712-0.74322-2.2745-1.7947-3.7188-1.9277-0.2904 0.0166-0.74046-0.0737-0.88086 0.25-0.06388 0.35927 0.38388 0.44829 0.64258 0.49805 1.1747 0.41473 2.0666 1.3302 3.0312 2.0801 1.2596 1.0888 2.8682 1.634 4.4414 2.0898 1.4315 0.39602 2.9179 0.54169 4.4004 0.51367 1.0132-4e-3 2.0263 0.028 3.0371 0.0762-1.7823 0.94684-3.538 1.9498-5.2109 3.0781-0.3007 0.3106 0.25242 0.68795 0.51758 0.42969 1.8934-1.0379 3.8329-1.9871 5.75-2.9805 2.0654-1.0675 4.1908-2.0274 6.2051-3.1953 1.4631-0.78463 2.9798-1.5594 4.6289-1.8496 0.82062-0.0798 1.7806 0.11753 2.3144 0.7754-0.10392 0.40962-0.60375 0.50218-0.91406 0.71679-1.3361 0.66646-2.7252 1.2534-3.9258 2.1562-2.4823 1.6384-4.8377 3.4648-7.3438 5.0684-2.536 1.5581-5.0706 3.119-7.6074 4.6758-0.19173 0.33399 0.2725 0.64947 0.54492 0.41016 2.7772-1.2303 5.332-2.8918 7.9316-4.4492 2.2847-1.4663 4.4537-3.1115 6.7988-4.4844 1.4739-0.94016 2.9833-1.8236 4.502-2.6875 0.61856-0.36681 1.2422-1.069 0.99414-1.8398-0.0723-0.25629-0.32729-0.49419 0.0684-0.58398 1.4364-0.8332 3.0372-1.4389 4.6582-1.7441 0.72853-0.0787 1.5906-0.16914 2.1934 0.33593 0.41133 0.3019 0.57416 1.0148 0.0703 1.3164-0.4742 0.29537-1.0014 0.49737-1.4805 0.78711-1.4616 0.73664-2.8998 1.5269-4.2148 2.5078-2.8692 1.9648-5.6678 4.0395-8.5488 5.9824-2.0699 0.99139-4.1961 1.8642-6.334 2.6953-2.011 0.66175-4.0623 1.2093-6.043 1.957-1.6146 0.69913-3.0986 1.7588-4.8672 2.0332-1.938 0.20172-3.8084-0.49459-5.7363-0.5957-3.4394-0.34041-6.8774-0.68541-10.32-0.98633-3.384-0.15211-6.7828 0.51398-9.9238 1.7578-2.5573 1.0323-4.9126 2.4608-7.1758 4.0274-3.2096-2.2515-6.2048-4.807-8.9316-7.623 3.8035-2.3294 7.546-4.7534 11.271-7.2051 3.3726-2.3109 6.4274-5.1267 10.156-6.877 2.0114-0.90684 4.2026-1.2438 6.4023-1.3066zm-41.793 1.2168c2.9822 5.3382 6.7405 10.241 11.148 14.484-0.35719 0.21126-0.71617 0.4191-1.0742 0.62891-2.9612-3.2593-5.5751-6.8345-7.7578-10.664-0.83509-1.4494-1.603-2.9359-2.3164-4.4492zm87.592 3.5664c1.9285-2e-3 3.9996 0.27732 5.4727 1.623 0.23944 0.23247 0.53389 0.53907 0.50781 0.89062-0.28626 0.45962-0.93107 0.35575-1.3945 0.43164-1.4773 0.12293-3.0271-0.0839-4.4336 0.47266-1.1724 0.38368-2.4412 0.2265-3.6309 0.53906-1.1124 0.31018-2.1576 0.82177-3.2402 1.2207-1.7122 0.66793-3.4086 1.3866-5.1465 1.9824-0.24607 0.0706-0.4947 0.12665-0.74024 0.19922 3.9275-2.5181 7.8333-5.0798 11.908-7.3574 0.23241-5.1e-4 0.46485-1e-3 0.69726-2e-3zm-74.531 11.143c0.4482 0.46682 0.90219 0.92653 1.3652 1.3789-0.49992-0.4304-0.99065-0.87029-1.4766-1.3164 0.03668-0.0216 0.07465-0.0409 0.11133-0.0625zm-1.0371 0.60156c2.9622 2.7517 6.1928 5.2123 9.6309 7.3438-0.56443 0.40951-1.1195 0.82927-1.6738 1.25-3.2836-2.3382-6.3346-4.999-9.1016-7.9297 0.38243-0.21988 0.76343-0.44188 1.1445-0.66406zm10.598 7.9297c1.4068 0.83772 2.8469 1.6197 4.3145 2.3457 5.9507 3.441 12.459 5.9197 19.211 7.2305 11.294 2.2333 23.218 1.289 33.992-2.7637 1.2079-0.45032 2.4002-0.94369 3.5781-1.4688-5.5805 2.8509-11.588 4.8662-17.771 5.9004-13.226 2.231-27.181 0.0337-39.018-6.291-2.0928-1.1041-4.1156-2.3371-6.0664-3.6758 0.58264-0.43057 1.1643-0.86207 1.7598-1.2773z" fill="#fff" style="paint-order:markers stroke fill"/>
</g>
</g>
</g>
</svg>
