<?xml version="1.0" encoding="UTF-8"?>
<svg width="1200" height="760" version="1.1" viewBox="0 0 317.5 201.08" xmlns="http://www.w3.org/2000/svg" xmlns:cc="http://creativecommons.org/ns#" xmlns:dc="http://purl.org/dc/elements/1.1/" xmlns:rdf="http://www.w3.org/1999/02/22-rdf-syntax-ns#" xmlns:xlink="http://www.w3.org/1999/xlink">
<defs>
<linearGradient id="c" x1="490.99" x2="490.99" y1="677.97" y2="83.848" gradientUnits="userSpaceOnUse">
<stop stop-color="#0d3aa2" offset="0"/>
<stop stop-color="#0d3aa2" stop-opacity="0" offset="1"/>
</linearGradient>
<linearGradient id="b" x1="192.79" x2="192.79" y1="186.97" y2="156.34" gradientUnits="userSpaceOnUse">
<stop stop-color="#725e52" offset="0"/>
<stop stop-color="#725e52" stop-opacity="0" offset="1"/>
</linearGradient>
<linearGradient id="a" x1="139.53" x2="139.53" y1="82.941" y2="-31.077" gradientUnits="userSpaceOnUse">
<stop offset="0"/>
<stop stop-opacity="0" offset="1"/>
</linearGradient>
</defs>
<metadata>
<rdf:RDF>
<cc:Work rdf:about="">
<dc:format>image/svg+xml</dc:format>
<dc:type rdf:resource="http://purl.org/dc/dcmitype/StillImage"/>
<dc:title/>
</cc:Work>
</rdf:RDF>
</metadata>
<g>
<rect width="317.5" height="201.08" fill="#60c5ff" style="paint-order:markers stroke fill"/>
<path transform="scale(.26458)" d="m1200 132.07-1.3574 0.09179-6.25 1.75s-8 4.25-8 4.5c0 0.25-1.25 12.5-1.25 12.5s-4.0002 3-4.25 3c-0.25 0-4.5 0.75-4.5 0.75s-8.2502 4-8.5 4c-0.25 0-2.75 5.25-2.75 5.25s-4 8-4 7.75c0-0.24998-10.5 0.25-10.5 0.25l-8.25 2.75-3.25-0.25-10.75 8-8.25 0.5-6.25 1.5-11.25 4.25-4 0.25-6.25 6.5-7.25 1.5-1 8.5s-7.75 1.75-7.75 2c0 0.25-6.25 3-6.25 3l-9.75-0.25-9.25 5-9.25-2.75-7.25 4.25h-9.25l-17.25-7.5-6-0.5-13.25-7 1.5-5.75-6.25-0.5-6.5-6.25-3 2.25-5.75 2.75-9.25 4-7.5 0.25-2 5.25-6 3.25-12.25 6.5-19 9.75h-5.5l-15.75 0.25-17 6-1.25 4.75-7.25 1.75-4 2.5-6.5-2-8.25 3.75-14.75 2.25h-6.5l-3.25-1.25-9.25 1-6 5-19.5 10.75-2 3.25h-2.75l-6 6-8.75 0.25-3 1.25-29.25-0.5-1.5 2.5-7.25-3-6.75-5.25-9-1.75-5-2.25s-4.2502 1.25-4.5 1.25h-6.25l-3.5 2.25-4.25 2-5.25 5.25-5.5 2.5-5.75 7-5.25-3-7-0.75-4.5 3.75-14.25 3s-14.25-2.75-14.25-3c0-0.25-6.5-5.75-6.5-5.75l-7.5-4.5-5.25-5.5-15-5.75-20.5-1-0.75 3.25h-2.75l-4-5.5-2.5-2.75-5.25-5-5.25-4.5-2.75-4.25v-2.75l-3-4-1-5.25-2.25-5.5-5.25-5-5.25-2.75-7.25 1-4.75-2h-4.25l-6.25 2h-3.5l-4.5 5.75h-3.25l-4.5 11.75-2.5 3-9.75 2-6 2.5-7.25 0.5-2.25-2.25-2.25-1.5-0.5 3.5-10 0.25h-8l-12.75-0.25h-3.75l-10 4-6 0.75-20-0.5-9.75 6h-3.5l-11.5-1.75-6-5.5-9.75-3.5-9.75-5-8.5-6.75-10.75-1.75-13 1h-9.25l-23 8.75-21.5 0.5-14.75 7.25-14.25 5.5-13.75 8-11.25 10.75-19.75 16.25-4.75 5.25-14 17.75-17.5 15-8.25 17.25-7.5 8-3.75 10-10.25 4.5-15.5 0.5s-18.75 5.75-19 5.75c-0.25 0-13.5 2-13.5 2l-5.75 3.25h-8.75l-7.5 1.25h-3l-9 10.5-6 8.75-2.5 1.75-7 7.5-1.75 0.25-9.25 12.25-0.75 3.75-4.25 4.75-1.1426 0.71289v336.88h1200v-627.93z" fill="url(#c)"/>
<path d="m0.13229 175.44h3.7042l2.3812 0.24606 3.7042-0.25664h3.4396l2.6458 0.21695 2.1167-0.21166h4.7625l3.7042 0.25664 3.7042-0.17727 7.9375 0.17992 3.9688-0.26458h12.171l3.9688 0.26458h9.525l2.9104 0.17462s3.9687-0.41804 3.9687-0.41804h3.4396l4.7625 0.24342 3.9687-0.26458h3.9687l4.2333-0.26459s14.023-0.26458 14.023-0.26458l7.6729-0.50006h14.023 2.6458 33.602l3.9688-0.29369h7.9375l3.9688 0.26458h3.175l10.054 0.79375c3.3893 0.0397 2.0611-0.29898 4.2333-0.80168 1.7542-0.40482 2.5109-0.14023 3.9688-0.30163 0 0 2.6458-0.635 2.6458-0.635 0.96837-0.0662 3.0215 0.68527 5.2917 0.36513 2.4421-0.34132 1.1959-2.167 2.9395-2.749 0 0 3.9396-0.90752 3.9396-0.90752l2.1167-1.0768c0.79375-0.19579 1.3256 0.23812 2.3812 0.18521 1.307-0.0661 2.6855-0.66411 3.9688-0.95779 0.44185 1.8627-0.40482 2.5638-1.0583 4.2333 2.1749-0.61648 3.2941 0.0291 4.7625-0.20373l3.9688-1.2965 3.9688 0.17727c2.8522 5e-3 4.7096-0.29633 7.4083 0.93134 0.75406 0.34131 3.8682 2.3178 4.4529 2.8602 0.61119 0.56356 1.487 1.9606 2.1802 2.1669 0.75142 0.2196 1.1509-0.46567 2.122-0.79375 1.0054-0.34131 2.3548-0.42333 3.4158-0.39952 2.114 0.0503 5.8579 1.524 7.6729 2.6247l2.9104 1.8944 5.5562 1.2991s2.3812 0.34925 2.3812 0.34925l9.7896 1.4446h2.3812l1.5875 0.44715h1.5875c1.8521 0.21431 1.614 0.53975 3.9688 0.38893 1.434-0.0926 1.3229 0.33073 2.3812 0.39688h1.8521s3.4396 0.59796 3.4396 0.59796l2.1167 0.16404c1.0557 0.17198 1.3891 0.42862 2.6458 0.48419h2.9104l5.5562 1.0186v14.023h-317.5v-25.654z" fill="url(#b)" stroke="#000" stroke-width=".26458"/>
<path d="m98.67 0.13229h3.4396l0.24077 2.9104s0.55298 7.6729 0.55298 7.6729v2.3812s0.76993 8.9958 0.76993 8.9958 0.31221 6.0854 0.31221 6.0854 0.48154 5.0271 0.48154 5.0271l1.8997 26.723 1.2753 15.081 1.8759 22.225v2.1167s1.8759 21.167 1.8759 21.167 0.76993 8.2021 0.76993 8.2021l1.1562 0.26194 2.077 3.7068 1.8918 4.2333 0.41011 2.9104 1.2488 2.9104 1.1536 2.1167h0.52917c1.0451-2.4474 3.2676-3.5534 3.81-5.0271 0 0 0.23548-3.4396 0.23548-3.4396 0.35983-2.757 2.077-6.4188 4.6858-7.6597 3.6354-1.7304 7.2284 0.21696 10.583-1.3362-2.6749-1.2515-1.6986-2.1669-2.331-3.9688-0.64029-1.823-2.3389-3.5534-2.4289-7.4083-0.0318-1.4473 0.037-2.1061 0.65617-3.4396 0.35718-0.77259 1.106-1.8494 1.2038-2.6458 0.14817-1.1959-1.3282-4.1434-0.6694-6.35 0.27782-0.93133 1.8521-2.7675 2.5056-3.7042 3.13-4.5006 7.4692-7.6597 12.705-9.2498l5.5562-1.1721c1.3652-0.43127 4.4715-3.3867 6.35-3.5216 1.7172-0.12436 3.7941 1.3811 5.2917 2.0638l3.175 1.1509 2.6458 1.3626c0.57944 0.27516 1.3176 0.46037 1.823 0.8255 0.83079 0.60325 1.0134 1.3705 1.524 2.1908 0.76464 1.2224 1.7436 2.3363 2.2595 3.7042l1.2965 4.4979v1.5875 2.3812l-0.58208 3.7042c8e-3 0.8255 0.25929 2.2463 0 2.8998-0.49213 0.98954-1.9685 1.569-2.8363 2.3072l-1.3811 1.4102s-6.5511 6.9215-6.5511 6.9215l-1.4288 1.7621-2.0611 1.8997c2.3098 0.55827 2.6749 0.0476 4.7625 0 3.728-0.082 2.6696 1.4182 6.1304 4.1301 1.061 0.8308 1.8732 0.79111 2.8204 1.3044l2.6564 2.0558c1.7489 1.6536 1.8865 3.0877 2.7887 4.9424 0 0 2.2728 3.4396 2.2728 3.4396l0.61648-2.3812c0.082-0.87048-0.43392-1.5028-0.48154-2.3812-0.0265-0.49212 0.49477-2.577 0.65087-3.175 0.48419-1.8203 1.5558-1.524 1.823-3.175l0.15346-1.8521c0.22225-1.3811 1.233-4.5826 2.54-5.244 0.67469-0.27252 1.3996-0.12436 2.1061 0 0 0-0.22754-5.0747-0.22754-5.0747v-52.388-33.126-11.324-2.9104-2.6458l0.17992-1.8521s-0.19579-2.1167-0.19579-2.1167l0.20108-2.9104v-3.175-6.6146h2.6882v120.91c3e-3 0.77788-0.11907 1.8812 0.61118 2.376 0.59796 0.40217 1.4843 0.12171 2.1034 0.88106 0.59002 0.73025 0.21431 1.4764 0.63236 2.5638 0.75406 1.9553 2.2648 3.6327 2.3124 6.0854 0.0291 1.606-0.9472 2.1696-1.4234 3.175-0.17728 0.37042-0.49478 2.1669-0.55563 2.6458-0.23283 1.8415 1.2303 5.2149 0.95515 7.1438l-0.56357 1.8521s-0.18785 2.3812-0.18785 2.3812l-1.0848 3.9688s-1.2912 3.9688-1.2912 3.9688c-0.0714 0.75671 0.254 1.5584 0.37042 2.3812v2.1167l0.50535 2.1167v2.3812c0.18521 1.1668 0.51594 1.4605 0.51859 2.9104 3e-3 1.0478-0.3228 3.011-0.73025 3.9688-0.6403 1.5134-1.307 1.5848-1.3732 3.4396-0.0476 1.2594 0.10319 1.7489 0.24871 2.9104v2.3812l0.27516 2.9104c5e-3 1.0319 0.14023 3.5719 0.39423 4.4979 0 0 2.4077 5.2917 2.4077 5.2917s1.696 5.5562 1.696 5.5562h-75.671l-0.26459-1.0583s-2.9104 0.79375-2.9104 0.79375l0.79375 0.26458h-17.198c0.49212-2.5823 1.7198-2.1696 2.0585-3.9688 0.49741-2.6591 0.29104-5.506 0.32279-8.2021 0 0 0.254-2.6458 0.254-2.6458v-4.2333c3e-3 -3.4237-1.098-2.3733-1.9685-4.7625-0.34131-0.93663-0.14288-2.159-0.13758-3.175 0 0 0.47889-5.2917 0.47889-5.2917v-5.2917l-2.0082-4.7625c-1.0345-2.1908-3.6512-6.9691-3.3814-9.2604l0.62706-3.175c-0.0423-0.56621-0.49212-1.1959-0.68527-1.8521l-0.81756-4.7625c0.0556-1.5319 1.1959-3.8444 1.7912-5.2917 0.79639-1.9368 0.42333-3.5004 1.8891-4.0746 0.48419-0.1905 1.3123-0.15611 1.8415-0.15875l-0.24077-4.2333-1.0583-13.494s-2.4289-31.485-2.4289-31.485l-0.48154-4.7625-1.0821-12.965v-2.3812l-0.76994-7.6729s-2.4051-29.369-2.4051-29.369v-2.3812l-1.0345-11.377s-0.81756-9.7896-0.81756-9.7896zm78.317 155.05c-1.0398 2.6247 1.0583 5.2626 1.2647 6.35 0.53446 2.8231-0.61648 5.2202-1.0001 7.9375 0.92075 0.49477 1.8018 0.94721 2.3786 1.8627 1.3917 2.2066-0.64294 4.4635-2.6432 5.2811 0 0 2.0982 4.7069 2.0982 4.7069l1.3811 1.6695 0.63765 2.5453 1.7039 3.2491 9.525-0.52917c0.66411-3.4819 2.2886-1.5425 2.9633-5.0271l0.58737-4.4979c0.10319-0.69321 0.39952-2.2939 0.25929-2.9104-0.24871-1.098-1.8574-2.5268-1.9076-4.4979l1.2726-8.9958c-4.8578 1.9288-7.448 1.1377-11.906-1.1959l-1.8521-0.91811c-1.5452-0.96837-3.7862-3.466-4.7625-5.0297zm-49.742 11.112c-2.9184 0.92075-7.3581 4.4953-12.435 2.1167 0.508 2.5268 1.0927 5.08 1.0583 7.6729-0.0344 2.5691-0.99483 2.3045-0.7964 3.9688l0.96309 3.9688c0.77787 3.1538 0.47625 4.0375 2.6776 6.6093 0 0 0.78317 0.90223 0.78317 0.90223 0.67998 0.55033 1.8574 0.18785 2.7226 0.16404 0.91281-0.0212 2.2992 0.0132 3.1247-0.40217 1.0583-0.53181 1.0266-1.5266 1.7701-2.3892 1.6166-1.8706 3.4528-2.3892 3.2835-5.4134l-0.48683-4.7598c-0.50536-1.1509-1.4711-1.4499-1.7833-3.1776-0.47096-2.6008 0.3175-4.1381 0.30691-5.2917l-1.188-3.9688zm70.379 1.0583c-0.71967 1.2382-0.52917 2.577-0.52917 3.9688h1.3229l-0.79375-3.9688zm-84.931 6.35-0.52917 1.5875h0.79375l-0.26458-1.5875zm84.931 7.4083c-0.48948 0.6641-0.95779 2.5241-0.63235 3.3311 0.15081 0.37571 0.35189 0.42598 0.63235 0.63765v-3.9688zm-83.873 1.3229c-0.53446 1.3441-0.52916 5.7838-0.52916 7.4083 0 0 1.823-0.94721 1.823-0.94721l-0.15875-1.9632-1.1351-4.4979zm74.612 14.817c-0.508-0.23548-0.74877-0.37571-1.3229-0.47096-0.85725-0.14022-3.9608 0.10584-4.5667 0.68792-0.34661 0.33338-0.36248 0.67733-0.46038 1.106 1.8177-3e-3 4.9874-0.0635 6.35-1.3229z" fill="url(#a)" stroke="#000" stroke-width=".26458"/>
</g>
</svg>
