<?xml version="1.0" encoding="UTF-8"?>
<svg width="1200" height="760" version="1.1" viewBox="0 0 317.5 201.08" xmlns="http://www.w3.org/2000/svg" xmlns:cc="http://creativecommons.org/ns#" xmlns:dc="http://purl.org/dc/elements/1.1/" xmlns:rdf="http://www.w3.org/1999/02/22-rdf-syntax-ns#" xmlns:xlink="http://www.w3.org/1999/xlink">
<defs>
<linearGradient id="b" x1="192.79" x2="192.79" y1="186.97" y2="156.34" gradientUnits="userSpaceOnUse">
<stop stop-color="#725e52" offset="0"/>
<stop stop-color="#725e52" stop-opacity="0" offset="1"/>
</linearGradient>
<linearGradient id="c" x1="490.99" x2="490.99" y1="677.97" y2="83.848" gradientTransform="scale(.26458)" gradientUnits="userSpaceOnUse">
<stop stop-color="#0d3aa2" offset="0"/>
<stop stop-color="#0d3aa2" stop-opacity="0" offset="1"/>
</linearGradient>
<linearGradient id="a" x1="150.71" x2="150.02" y1="37.576" y2="252.94" gradientUnits="userSpaceOnUse">
<stop stop-color="#fff" offset="0"/>
<stop stop-color="#fff" stop-opacity="0" offset="1"/>
</linearGradient>
</defs>
<metadata>
<rdf:RDF>
<cc:Work rdf:about="">
<dc:format>image/svg+xml</dc:format>
<dc:type rdf:resource="http://purl.org/dc/dcmitype/StillImage"/>
<dc:title/>
</cc:Work>
</rdf:RDF>
</metadata>
<rect width="317.5" height="201.08" fill="#60c5ff" style="paint-order:markers stroke fill"/>
<path d="m317.5 34.943c-6.2038 2.6247-8.2048 11.489-16.631 11.203-3.2722 3.5407-9.3546 1.7169-12.369 5.5562-2.7053 2.7693-7.5668 4.788-12.288 4.817-3.694 1.6638-7.5824-0.11028-11.431-1.2981-3.9893-0.85936-3.5749-5.1938-7.435-4.5773-4.0965 1.4523-6.4273 2.8272-9.9689 5.1087-3.7074 2.2626-7.5449 4.0285-11.991 3.3578-4.3268 1.115-6.3576 4.344-10.83 4.0327-4.1806 2.1381-9.2374-0.89779-12.65 2.9431-3.6401 1.0413-5.2409 4.9153-9.0634 4.6658-3.9264-0.01361-8.2513 1.3778-11.413-0.37385-3.6142-2.7931-8.8122-2.2822-11.861 1.1334-2.5628 3.0975-5.9268 0.62761-9.561 2.8075-6.5578 0.91704-9.8532-7.481-16.66-6.4187-3.7941 1.79-4.8087-1.3982-7.9845-3.9613-1.6444-2.8379-2.2663-8.903-7.0775-7.5405-3.6472-1.4685-7.5405 0.96384-8.202 4.6302-3.0082 2.7191-7.2365 1.2639-9.5026 2.0863-4.0938-0.0822-8.0919-0.23161-11.928 1.2209-4.3719-1.5175-7.441 2.5663-11.631 1.0239-2.5727-2.5137-6.7116-2.6985-9.2043-5.5218-5.3421-1.3062-10.586 0.40888-15.533 2.1333-5.9527-0.52581-11.162 3.004-16.283 5.6057-4.7648 4.4072-9.9505 8.336-13.707 13.695-4.3388 2.1808-4.9722 7.0966-8.2531 10.183-2.0403 6.5065-11.527 3.0481-16.404 6.0192-3.269 1.6104-7.8268 0.05855-9.401 4.5598-2.7932 3.5631-6.7238 6.4658-8.2313 10.633v88.415h317.5v-166.14z" fill="url(#c)" stroke-width=".26458"/>
<path d="m0.13229 175.44c13.122 0.0932 26.232 0.0786 39.377 0.1689 13.106-0.61344 26.234 0.62918 39.315-0.12567 14.144 0.16268 28.318-0.78351 42.468-1.083 19.662 0.0613 39.334-0.0182 58.976-0.20859 6.173-0.0107 12.351 1.0831 18.494 0.77579 6.8352-1.9706 13.571-0.28118 18.999-4.4991 5.1372-2.3053 11.656-2.3638 10.31 1.7916 5.582-0.36474 11.005-2.0872 16.758-0.79519 7.1911 7.236 15.831 2.581 23.883 8.517 9.9234 3.3668 20.753 3.4504 31.039 4.8245 5.9557 0.8456 11.967 1.0638 17.881 2.2648v14.023h-317.5c-6.655e-5 -8.5513 1.3317e-4 -17.103-1e-4 -25.654z" fill="url(#b)"/>
<path d="m33.077 60.059c9.1535 3.0195 9.1505-4.4652 8.4373-10.471 11.214-4.1107 20.665-6.259 31.56-1.7445 8.7728-0.38727 22.944 5.6514 16.393 15.393 5.6161-2.6835 18.904 10.114 6.8726 8.9297-7.4201 1.2759-12.524-5.7043-19.607-6.5511-0.84664 4.2648 10.158 7.4838 0.84932 8.2735-5.8088-5.6609-13.922-4.4417-20.233-5.506-5.8269 4.4845-19.458 2.4135-16.838-6.0944-2.7549 1.369-5.7569 0.2404-7.4348-2.2294zm161.93-10.054c-8.0453-3.6765 2.9172-9.1854 0 0zm-0.26459 7.9375c-5.9229-3.3436 3.3832-11.654 0 0zm76.729-0.52917c4.8981-1.8806 1.24 2.8914 0 0zm-59.531 1.5875c-0.37392-3.5635-4.2692-0.85534 0 0zm-81.227 4.4979c4.979 0.84963 2.0002 4.7081 0 0zm159.01 3.175c-3.832-0.81621-1.6766 3.0347 0 0zm-10.848 1.3229c-10.272-4.6994-3.9636 3.9107 0 0zm-78.317 2.6458c2.8186-4.752 7.4215 1.2192 0 0zm-198.44 2.3812c4.5058-2.1528 13.733-2.016 18.004 2.7245 5.7014-0.22204 12.357-1.6204 18.553-0.81274 6.357-0.38823 12.646-1.5341 18.933-0.05178 4.1407 0.55852 18.343 1.7105 12.245 4.9014-6.1074 5.0346-14.691 3.6977-22.986 1.5673-8.8942-3.2715-11.811 3.57-2.5886 5.5936-0.3119 3.8899-11.246 3.1325-3.2356 7.5963 5.9562 7.7991-2.1854 5.5326-5.5866 1.2487-6.153 2.1473-12.742-0.18554-19.315 1.9659-7.4324 0.03498-11.612 11.309-16.14 12.911v-31.823c4.8918 2.9861 25.612-1.8137 11.653-4.9057-3.723 0.34616-6.0297 0.69338-9.5359-0.91513zm187.85-1.0583c7.6303-2.8964 5.008 5.5639 0 0zm-89.165 3.9688c13.854 4.2365-8.3446 10.548 0 0zm-23.008 3.8761c3.5484 0.40934 21.424 1.0299 9.9279 2.8274-2.3477-0.50497-12.998 0.56863-9.9279-2.8274zm0.51858 14.116c-1.1459 7.5322-9.8104 3.1778-14.702 5.9828-2.5693-8.1815 6.2191-11.337 11.792-5.2922l1.0901-0.28476zm-22.495-1.1959c3.3331 2.66-8.1884 13.375-3.8656 3.048-1.5162-3.1945 1.731-2.9394 3.8656-3.048zm77.745 10.192c3.437 0.26295-0.3008 3.72 0 0zm179.44 1.3467c-1.8499 4.8296-5.8337-0.73009 0 0zm-301.36 17.968c-7.8534-6.345 1.1292-19.574 10.848-15.42 3.9225 0.68285 18.307 12.478 8.2687 8.4553-3.7883-5.2527-7.147-4.2147-1.9331 1.6496-2.4563 3.7932-5.9839-9.585-9.2461-2.8871 7.9039 3.6197 1.3108 3.154-1.284 1.184-4.1228-0.16558-4.2899 4.5307-6.6535 7.0181zm123.03-15.081c3.762 0.35037 0.94705 4.8783 0 0zm0 6.0854c-7.3129 1.5071-3.281-4.7658 0 0zm68.262 9.7896c-4.5694 4.2986-5.3765-5.6771 0 0zm42.862 11.642c-4.0561 0.0208-11.635-7.9363-3.7042-5.7282 2.6583 0.92021 3.5095 3.1002 3.7042 5.7282zm-12.435 4.2333c3.5341-9.0017 10.803-3.2358 0 0zm13.758-3.175c0.72697-0.30112-0.30111 0.72695 0 0zm7.1438 16.669c1.135-8.4928 1.6392-21.428 4.7122-6.8554-2.3795 2.6236 0.65038 6.5864-4.7122 6.8554zm-30.427-2.9104c-0.0285-4.8548 7.7242-6.6481 1.9252-1.4575zm28.575 5.5562c2.767-5.3476 3.7277 0.56676 0 0zm-35.19 19.315c4.7567-5.4597 11.183-0.2596 0 0zm13.758-2.1167c0.72695-0.30111-0.30111 0.72695 0 0zm-27.517 2.9104c4.6755-1.4884 18.278-0.96862 5.4511 0.46365-1.8053-0.4026-3.6784 0.31509-5.4511-0.46365zm26.723 0.56357c-5.0124 1.7422-3.9713-3.8235 0 0zm-37.306 25.101c-4.5927 1.0465-15.536-1.1674-4.9762-3.423 2.8711-3.9776-11.832-2.0278-3.4798-8.8898 13.189-3.9937 5.0596 5.7458 8.4559 12.313zm3.9688-12.435c3.2473 3.3087-1.0145 5.8696 0 0zm-72.991 3.6724c7.3722 4.6477-5.4258 9.2928 0 0zm-8.7656 0.56091c0.69538 8.3492-4.1983 5.8164 0 0zm85.46 8.2021c2.3755-5.338 6.4283 1.7574 0 0zm-7.5247-121.13c-6.8192-6.0899-9.4802-12.606-19.695-10.06-7.8002-0.26897-14.348 2.1948-21.649 1.7197-5.5908-3.1187-10.996 3.7922-14.222-3.7568-6.1605-4.5989 5.2307 10.531-5.7011 5.4775-3.9285-1.1903-16.281-12.612-10.726-1.6692-4.8301 6.9833 15.977 10.755 3.3179 9.7734-4.6873-0.99391-22.508-2.2575-11.681 2.6275 8.8594 3.4804 15.361 9.779 21.151 16.338 13.53 9.6477 31.372 2.126 46.351 6.6875 6.1358 3.0004 9.4704 3.353 8.1001 9.0601 5.0308 7.5292 7.1082 2.4091 10.003-2.3707 11.361 6.3406-5.1188-13.338 4.702-5.1894 6.1043-0.0597 13.03 3.5241 19.165 0.79548 5.2057-0.51463 10.029 3.1405 8.5768-3.1546 5.7665-2.4821 12.675-1.4205 18.712-0.15809 6.3915 0.5043 12.049-3.3832 18.653-2.8652 6.9196 0.0384 13.617 1.4092 20.426 0.0889 8.2132 1.0518 14.825-4.6564 22.638-5.2465 7.0557 2.4424 6.6607 3.0531 6.35-4.9083v-61.658c-10.333 0.10677-0.44408 18.07-11.652 11.644-6.2339-4.8292-19.168 7.999-6.6066 4.8128 7.9971-5.0187 3.2939 5.2084-2.7246 2.7896-2.094 7.4661 16.453-0.91569 5.9764 7.2831 5.9461 9.272-12.537 13.871-10.128 7.0273-21.467-9.4816-40.488 8.7336-55.997-1.0436-0.24055-5.2245-8.0174-0.58178-11.769-4.8379-6.6514-1.3086-15.636-0.57058-13.681-10.304-6.3283-6.2318-15.98-6.4177-12.745 4.4149-1.829 7.8017 7.052 11.39 13.155 10.337 3.597 6.7332 8.0195 10.825 15.547 10.986-4.9143 7.8173-16.388 12.615-21.087 2.5277-4.4753-1.8795-7.4015 5.0053-12.758 2.8327z" fill="url(#a)"/>
<path d="m98.67 0.13229c3.8169-1.1923 3.844 1.7632 3.811 4.7227 1.2892 20.626 2.8889 41.246 4.4599 61.863 1.8766 20.664 3.1543 41.356 5.2229 62.002 2.5497 0.72152 3.032 4.3335 4.3452 6.4571 1.3112 2.986 1.2457 6.4281 3.3082 9.1612 3.3106 0.31185 5.2168-6.5321 5.3758-10.131 1.462-7.3779 9.3863-5.7649 14.752-6.8105-7.2034-6.3554-2.7203-15.808-3.5693-23.812 3.9647-7.6239 11.523-13.065 20.1-13.985 4.8143-4.308 10.035-3.459 15.298-0.51486 4.3771 1.5061 7.5808 4.9568 8.8153 9.4598 1.9903 4.4284 0.17848 9.1851 0.33698 13.761-5.3126 4.1078-9.3986 9.6631-14.258 14.301 6.9082-1.5032 10.836 4.1678 16.228 7.3806 1.9968 0.58494 4.4369 11.11 5.6586 6.7326-0.46812-5.7819 2.4346-11.337 4.8469-16.449 3.9232 0.67556 1.1412-4.8142 1.8786-7.346 0.0687-38.93-0.16948-77.9 0.18521-116.79 4.1163-1.2518 2.3246 3.4044 2.6882 5.9053 0.0219 38.766-0.0438 77.533 0.0329 116.3 5.7164 3.6468 5.9558 11.983 3.7372 18.055 1.7851 5.9361-0.44071 11.988-2.262 17.693 0.34217 4.6598 1.3967 9.2604 1.1832 13.924-2.2156 4.0292-1.8684 8.482-1.4298 12.943-0.54237 5.5622 3.3406 9.9462 4.3221 15.218-0.47278 1.7561-5.2834 0.30095-7.4852 0.77707h-67.949c-2.0792-2.2631-2.5447 1.1264-5.561 3e-5h-14.018c3.3888-4.3956 2.0189-10.074 2.6353-15.271 1.1199-4.8309-2.9519-8.3625-1.9832-13.074 0.40565-4.5331 1.1154-9.3447-1.4089-13.412-2.7078-4.2842-3.9239-9.0982-3.2836-13.905-2.3095-4.8816-0.1398-9.8267 1.662-14.482 4.2914-0.11083 1.9713-4.7097 2.1892-7.7158-1.5296-20.306-3.2013-40.607-4.8377-60.898-1.2323-15.43-2.6576-30.878-3.6687-46.324-0.49406-5.2369-0.92254-10.509-1.3574-15.733zm78.317 155.05c-0.16716 4.7624 2.7403 9.394 0.2646 14.288 6.9053 3.417-3.2823 7.1862 1.8336 11.851 2.103 2.0081 1.9244 5.182 3.7226 7.4639l9.525-0.52917c2.8854-3.6018 4.2545-8.6264 3.414-13.324-2.8597-3.7467-0.36974-8.3975-0.23907-12.605-6.7063 3.0866-14.791-1.46-18.521-7.1438zm-49.742 11.112c-3.274 2.8963-10.589 2.3706-12.242 3.0655 2.0456 4.7888-0.88937 9.5507 0.92615 14.224-1.0056 7.9373 9.1478 11.709 12.403 4.1117 4.4742-3.8535 0.54732-9.6364-0.35473-13.903 0.80873-2.7395 0.16162-4.9306-0.73229-7.4988zm70.379 1.0583c-1.8874 6.1616 2.1556 4.4154 0 0zm-84.931 6.35c-1.3237 2.1618 0.90687 2.2807 0 0zm84.931 7.4083c-1.7207 5.0574 0.72944 4.6232 0 0zm-83.873 1.3229c-2.1627 3.6547 1.2416 10.729 1.0239 4.0574-0.34131-1.3525-0.68265-2.705-1.0239-4.0574zm74.612 14.817c-2.8422-2.3171-10.155 2.3593-3.0043 1.1327l1.6929-0.39501 1.3114-0.73759z" fill="#1d2758" opacity=".97284"/>
<path d="m111.54 130.41c-4.2209-3.0984-1.939-10.301-3.05-15.249-3.3483-37.726-5.9881-75.561-8.8051-113.34 3.6976-3.6378 2.2347 8.753 2.9323 12.389 1.8013 23.097 3.232 46.133 5.4457 69.104 1.0943 15.687 3.0083 31.355 3.4771 47.094zm85.053-130.15c3.0408 2.9844 0.99553 10.016 1.5293 14.531-0.0746 23.184-0.0849 46.431-0.28575 69.585 0.0615 12.706 0.37253 25.552 0.0236 38.279-3.9949-0.18465-1.3882-9.9988-2.1403-14.131 0.31661-16.19 0.42784-32.28 0.0952-48.489-7e-3 -19.535-0.0191-39.149 0.0957-58.623zm-29.448 93.112c-0.61298 3.912-4.0981-1.3056 0 0zm-14.552 3.175c-2.5574-1.4261 2.0498-3.0996 0 0zm19.299-1.7621c4.8301 4.4358-3.7025 4.128 0 0zm-14.536 0.43921c6.6963-2.6011 2.0293 5.6402 0 0zm20.772 2.4262c3.9045 1.0823-2.0938 3.7426 0 0zm-6.9559 5.2917c6.0725 4.3958 8.0217 12.335 7e-3 16.642-8.8102 1.6127 4.1266-10.687-1.0481-15.424zm-23.606 6.0404c-5.6403-2.8753 1.3632-10.947 0 0zm6.0854-5.5562c6.2054 0.34439 1.1186 4.7105 0 0zm-11.642 2.3812c-1.0821 4.4414-4.5643-1.4578 0 0zm21.696 1.0583c4.2542 6.9434-4.7782 4.3944 0 0zm-8.6492 4.2677c6.4206 1.5352-1.9666 6.4223 0 0zm-6.432 10.549c-7.1944-3.4123 1.9113-9.1983 0 0zm4.7625-5.0271c6.7791 2.5363-0.11782 7.9302 0 0zm14.881 10.052c5.6579-0.35125 9.2671 3.4541 11.035 5.2001 5.7686 1.104 10.365 15.135 9.8882 2.4378 7.6625-9.7452 14.611 0.98517 13.247 9.5624 0.58235 7.3954-4.8512 13.996-2.3714 21.388 0.15441 5.1826-0.43386 10.417-2.4943 2.4246 2.1711 10.455-5.0016 4.3235-2.1342-1.763 2.3783-7.9231-13.385-0.29731-16.247-8.6811-3.7428-2.0714 0.0346 9.7217-1.3805 13.349 3.564 3.9251-3.4294 8.7181 1.9497 14.219 5.5836 4.3128 1.3817 17.119-3.8916 15.684-15.405-0.091-30.824 0.18137-46.221-0.13494-5.887-0.96399-5.6967 0.43421-2.5178-4.5512-2.6876-7.6544 7.977-14.591 1.1487-22.915 3.8601-9.0268-15.991-6.4051-13.096-1.503 0.19501 4.2362-0.39861 8.3961 0.4644 12.656-2.432-1.4476-7.493-11.061-5.1938-17.942-0.37742-7.3413-7.2725-13.249-5.3247-20.908-5.3349-10.602 15.944-15.79 12.883-2.3975 10.291 3.1862 4.6324-20.238 18.177-15.33 20.448 0.1271 20.573-0.86558 32.079-0.79607zm-49.277 18.523c-1.4188-0.97824-1.0224 0.77193 0 0zm77.788 32.544c1.3099 1.3145-1.1848 5.4938 0 0zm-1.5875 12.171c2.9416 3.8009-2.8129 4.1716 0 0zm-78.052 1.5875c3.9747 4.3679-3.318 6.9875-0.0468 0.19241zm71.702 4.2333c-6.3268 3.3585-8.6374-4.0363 0 0zm8.7312 0.52916c1.4853 3.3731-3.4054 1.2491 0 0zm-87.312 4.2333c2.5736-3.0864 4.8258 1.3358 0 0z"/>
</svg>
