<?xml version="1.0" encoding="UTF-8"?>
<svg version="1.1" viewBox="0 0 256 256" xmlns="http://www.w3.org/2000/svg">
<svg width="256" height="256" version="1.1" viewBox="0 0 67.733333 67.733333" xmlns="http://www.w3.org/2000/svg" xmlns:cc="http://creativecommons.org/ns#" xmlns:dc="http://purl.org/dc/elements/1.1/" xmlns:inkscape="http://www.inkscape.org/namespaces/inkscape" xmlns:rdf="http://www.w3.org/1999/02/22-rdf-syntax-ns#" xmlns:sodipodi="http://sodipodi.sourceforge.net/DTD/sodipodi-0.dtd" xmlns:svg="http://www.w3.org/2000/svg">
<path d="m33.773 0.13155c-8.9309 0.024796-17.487 3.59-23.794 9.9138-6.3063 6.3239-9.8477 14.89-9.8477 23.821 2.591e-5 9.049 3.6355 17.719 10.09 24.061 1.7008-1.0537 3.2711-2.0728 4.3646-2.8547 2.6145-1.6397 5.0035-3.9764 7.7113-4.7364 0.95117-0.26728 2.2132-0.39819 3.4418-0.39583 0.9556 0.0018 1.891 0.08402 2.6443 0.24548 1.2471 0.23645 2.258 0.49462 3.7632 0.68817 0.76806 0.0059 2.2952-0.15218 2.2952-0.15218 0.85683-0.13746 4.377-0.27971 5.331 0.02634 0.06802 0.0066 0.30926 0.1445 0.38076 0.30771 0.31626 0.61499 0.12827 1.4182-0.54801 1.9422-0.96275 0.66121-2.9518 0.91733-4.1952 1.1326l4.145 0.35625 4.5854-2.4403c0.49-0.18161 1.409-0.49442 1.9271-0.40314 0.33033 0.05904 0.51985 0.06868 0.89073 0.31122 0.66129-0.40323 1.3074-0.86001 2.5984-1.2613 0.35705-0.08938 0.91394-0.2075 1.3911-0.19875 0.21689 4e-3 0.41729 0.03419 0.57495 0.10516 0.63 0.23323 1.042 0.99897 0.64526 1.6128-0.05516 0.08581-0.76107 0.54452-0.76107 0.54999 1.0152 0.0087 2.6132 0.15427 3.4471 0.78298 0.40579 0.30678 0.81655 0.95876 0.42687 1.4736-0.56452 0.4355-1.6752 0.3664-2.3304 0.42672-0.54452 0.05161-0.65032 0.05644-1.1535 0.16999l-1.758 0.14518c-0.54 0.07097-1.7094 0.46059-2.242 0.66124l-2.7419 0.98386c-1.3064 0.2742-1.059 0.19906-1.059 0.19906-0.23043 0.06114-0.47061 0.09963-0.70978 0.15036l-3.3146 1.406-2.4973 0.76077-1.1129 0.35474c-1.1968 0.55936-1.9641 1.5843-3.4354 1.5001l-1.7582-0.24197-6.5483-0.6445c-2.0671-0.02355-3.3746-0.08132-5.3871 0.5961-0.94031 0.31602-1.8763 0.7509-2.7974 1.2616 5.2602 3.1747 11.288 4.8527 17.432 4.8527 8.9471 2.3e-5 17.528-3.5542 23.854-9.8808 6.3266-6.3266 9.8808-14.907 9.8808-23.854-1.8e-5 -8.9471-3.5543-17.528-9.8808-23.854-6.3266-6.3266-14.907-9.8808-23.854-9.8808-0.0312-4.418e-5 -0.0624-4.418e-5 -0.0936 0zm7.24 1.8601c0.02441 7.95e-5 0.04894 0.00147 0.07366 0.00442l-0.04991-0.0035h0.02527l0.02465 0.0035h0.0012c0.02082 0.00235 0.04209 0.0061 0.06346 0.010337 0.15002-8.849e-4 0.28716-0.00489 0.47664 0.12829 0.10498 0.073776 0.1989 0.22154 0.22143 0.34622 0.02252 0.12468 3e-3 0.21386-0.01552 0.28474-0.07394 0.28352-0.195 0.45355-0.29615 0.79653l-0.001178 0.00236c-1.037 3.4494-1.8216 6.5695-2.4847 9.3247-0.04432 0.18417-0.13689 0.28627-0.17775 0.33998-0.01758 0.02311-0.02214 0.03209-0.02436 0.03576l-0.76825 3.5955c0.05548 0.1511 0.11047 0.30284 0.16329 0.45716 0.92437 2.7003 1.4012 5.8968 1.3269 9.1821 2.7813-2.4714 6.62-4.7953 11.698-5.3031l0.53432-0.05357-0.05053 0.53447c-0.25908 2.7526-1.3932 7.2544-4.0418 11.329 3.8561-0.53589 7.7551-0.01423 10.579 1.714l0.30482 0.18704-0.119 0.33693c-1.9739 5.5901-6.8218 9.6982-12.266 11.269-4.6574 1.3438-9.7759 0.79596-13.882-2.2823-0.31512 0.31425-0.71014 0.65575-1.2453 1.0635l-0.01263 0.0098-0.01384 0.0093c-2.6585 1.7323-7.1377 2.3056-11.697 0.92832-4.5597-1.3773-9.192-4.7504-12.026-10.961l-0.19206-0.42155 0.43022-0.17197c4.201-1.6804 7.531-2.1629 10.439-1.7612-1.356-3.0935-2.2232-6.9694-2.4209-11.756l-0.02526-0.60797 0.58606 0.16451c4.8274 1.3543 8.2201 3.4895 10.662 5.7191-0.17246-6.0773 1.7714-12.278 6.5209-15.723l0.24791-0.18003 0.25536 0.16908c1.4087 0.93401 2.61 2.5081 3.5517 4.4873l0.46203-2.194c-0.0046 0.02186-5e-6 -0.0017-8e-3 -0.07366-8e-3 -0.07197-0.02877-0.19264 0.0056-0.35428 0.6927-3.253 1.6742-6.4053 2.2525-9.5139 8.83e-4 -0.22881 0.07017-0.41029 0.19038-0.61224 0.06558-0.11016 0.15045-0.22124 0.27956-0.31456 0.11274-0.081489 0.27311-0.14526 0.44392-0.14473z"/>
</svg>
<style>@media (prefers-color-scheme: light) { :root { filter: none; } }
@media (prefers-color-scheme: dark) { :root { filter: invert(100%); } }</style>
</svg>
