<?xml version="1.0" standalone="no"?>
<!DOCTYPE svg PUBLIC "-//W3C//DTD SVG 20010904//EN"
 "http://www.w3.org/TR/2001/REC-SVG-20010904/DTD/svg10.dtd">
<svg version="1.0" xmlns="http://www.w3.org/2000/svg"
 width="700.000000pt" height="700.000000pt" viewBox="0 0 700.000000 700.000000"
 preserveAspectRatio="xMidYMid meet">
<metadata>
Created by potrace 1.14, written by Peter Selinger 2001-2017
</metadata>
<g transform="translate(0.000000,700.000000) scale(0.100000,-0.100000)"
fill="#000000" stroke="none">
<path d="M3325 6983 c-659 -40 -1260 -242 -1785 -600 -641 -437 -1105 -1053
-1350 -1793 -336 -1012 -186 -2128 405 -3015 116 -175 195 -275 342 -437 l115
-128 31 18 c59 33 573 379 667 448 352 260 501 329 761 354 168 17 294 7 539
-42 224 -45 344 -52 535 -29 107 13 431 14 495 2 57 -12 80 -39 80 -99 0 -59
-36 -120 -87 -149 -54 -30 -150 -59 -277 -83 -106 -20 -140 -30 -100 -30 10 0
103 -7 206 -16 l187 -16 234 125 c129 69 257 133 283 142 74 26 175 31 214 11
32 -15 33 -15 102 25 148 87 336 131 403 96 63 -32 94 -91 76 -141 -6 -13 -27
-36 -47 -50 l-37 -25 34 -5 c19 -3 63 -8 97 -11 146 -14 251 -70 273 -145 24
-79 -17 -101 -221 -120 -375 -34 -386 -36 -680 -143 -86 -31 -199 -66 -252
-76 -64 -14 -154 -44 -265 -91 -92 -40 -249 -96 -348 -127 -194 -59 -219 -70
-325 -139 -115 -74 -181 -87 -325 -64 -33 5 -224 26 -425 46 -544 54 -716 43
-975 -61 -78 -32 -162 -72 -194 -93 -17 -12 193 -129 384 -213 784 -344 1664
-389 2475 -127 1137 367 2006 1290 2306 2448 75 287 108 554 108 870 0 316
-33 583 -108 870 -268 1036 -998 1894 -1972 2321 -176 77 -450 168 -624 208
-309 69 -674 102 -955 84z m979 -209 c18 -18 21 -66 6 -94 -17 -32 -135 -453
-210 -749 -39 -156 -75 -290 -80 -299 -11 -19 -80 -337 -80 -367 0 -11 14 -63
30 -115 65 -205 106 -458 117 -720 3 -88 8 -160 10 -160 2 0 42 31 89 70 315
257 716 428 1093 466 84 8 79 19 55 -145 -49 -342 -197 -743 -380 -1033 l-25
-39 78 8 c114 12 395 8 488 -6 100 -16 253 -54 325 -82 85 -32 230 -110 230
-123 0 -6 -20 -58 -43 -116 -163 -398 -500 -750 -912 -951 -573 -279 -1213
-256 -1682 62 l-72 49 -63 -55 c-333 -291 -1020 -308 -1561 -39 -391 195 -689
496 -908 918 -57 110 -69 140 -58 147 8 4 70 28 139 53 331 119 580 164 837
153 l132 -6 -20 52 c-88 219 -157 490 -193 762 -19 137 -41 443 -33 451 9 10
210 -53 362 -113 253 -99 484 -232 686 -395 l106 -85 7 161 c25 619 242 1111
628 1424 l68 54 48 -36 c109 -80 242 -243 308 -378 16 -32 31 -58 34 -58 8 0
46 180 54 255 3 28 47 214 97 415 49 201 103 425 119 498 33 158 49 182 116
182 25 0 49 -6 58 -16z"/>
</g>
</svg>
