<?xml version="1.0" standalone="no"?>
<!DOCTYPE svg PUBLIC "-//W3C//DTD SVG 20010904//EN"
 "http://www.w3.org/TR/2001/REC-SVG-20010904/DTD/svg10.dtd">
<svg version="1.0" xmlns="http://www.w3.org/2000/svg"
 width="700.000000pt" height="700.000000pt" viewBox="0 0 700.000000 700.000000"
 preserveAspectRatio="xMidYMid meet">
<metadata>
Created by potrace 1.14, written by Peter Selinger 2001-2017
</metadata>
<g transform="translate(0.000000,700.000000) scale(0.100000,-0.100000)"
fill="#000000" stroke="none">
<path d="M3280 6994 c-19 -2 -84 -9 -145 -14 -578 -56 -1180 -283 -1660 -625
-237 -169 -531 -446 -709 -670 -416 -521 -673 -1147 -748 -1820 -17 -154 -17
-585 0 -730 69 -588 254 -1099 567 -1570 126 -189 242 -332 410 -504 580 -595
1295 -943 2140 -1043 145 -17 576 -17 730 0 822 91 1556 447 2131 1034 203
206 348 390 487 618 274 449 432 915 499 1465 16 135 16 591 0 730 -100 846
-447 1557 -1043 2141 -555 542 -1249 874 -2029 970 -117 15 -553 27 -630 18z
m2167 -1794 c201 -16 313 -68 438 -203 125 -134 173 -286 142 -442 -24 -117
-67 -197 -151 -280 -113 -112 -237 -165 -426 -180 -228 -17 -436 81 -560 267
-62 93 -83 176 -78 308 l3 109 -54 7 c-29 4 -93 4 -140 2 -135 -8 -217 -54
-262 -145 -19 -40 -23 -64 -24 -148 0 -134 13 -180 172 -620 74 -203 150 -423
168 -487 107 -370 77 -681 -90 -932 -56 -85 -200 -225 -295 -288 -159 -105
-418 -217 -630 -271 -109 -28 -354 -70 -515 -89 -144 -16 -569 -16 -715 1
-282 31 -630 107 -811 176 -349 133 -565 336 -635 596 -22 80 -25 271 -5 349
72 294 329 465 813 542 122 20 182 22 744 25 502 4 612 2 617 -9 3 -7 37 -89
76 -181 39 -93 71 -170 71 -172 0 -2 -204 -5 -452 -7 l-453 -4 -90 -27 c-184
-58 -301 -140 -357 -255 -29 -59 -33 -76 -33 -147 0 -122 32 -205 104 -273
108 -103 246 -173 433 -221 223 -58 442 -65 659 -21 185 37 259 68 377 157
180 137 293 345 293 541 0 154 -54 407 -127 591 -139 350 -198 528 -230 698
-28 150 1 415 59 529 125 248 408 408 827 468 251 36 879 56 1137 36z"/>
</g>
</svg>
